<?xml version="1.0" standalone="no"?>
<!DOCTYPE svg PUBLIC "-//W3C//DTD SVG 1.1//EN" "http://www.w3.org/Graphics/SVG/1.1/DTD/svg11.dtd" >
<svg xmlns="http://www.w3.org/2000/svg">
<metadata>Generated by IcoMoon</metadata>
<defs>
<font id="icomoon" horiz-adv-x="512">
<font-face units-per-em="512" ascent="480" descent="-32" />
<missing-glyph horiz-adv-x="512" />
<glyph unicode="&#x20;" d="" horiz-adv-x="256" />
<glyph unicode="&#x21;" d="M111.5 188.75q-16.75 8.25-32.5 8.25-14 0-31.5-7.75-4.75 10.75-8.25 20-25 66.5-25 123.25 0 29.5 14 48.25 18 24 49.75 24 25.25 0 42.75-16 22.75-21 22.75-62 0-52.5-20.75-110.75-4.75-13.75-11.25-27.25zM79.75 189.75q17 0 34-10.25 16-9.5 24-27 6.25-13.5 6.25-27.75 0-28-19.5-46.5-8.5-8.25-21.125-13.25t-24.125-5q-17.75 0-34.75 10.25-16 9.5-24 27-6.25 13.5-6.25 27.5 0 28.75 19.5 46.75 19.75 18.25 46 18.25z" horiz-adv-x="150" />
<glyph unicode="&#x22;" d="M93 392.5q14 21 35.75 21 22.75 0 34.75-19.75 10-16.25 10-38.5 0-45.5-25.75-92-12-22-19-22-9.5 0-24.75 28.5-7 13.25-12.5 29.5 9.75 31 9.75 56 0 19.5-8.25 37.25zM50.25 413.5q22.25 0 34.25-19.75 10-16.25 10-38.5 0-45.5-25.75-92-12.25-22-19.25-22-9.5 0-24.5 28.5-21.5 39.75-21.5 81.25 0 31.75 16 49.25 12 13.25 30.75 13.25z" horiz-adv-x="177" />
<glyph unicode="&#x23;" d="M49 126.75l1.75 11 0.5 4.75q0.5 4.75 0.5 5.25 0 7.75-12 7.75-2.5 0-19-1.25-4.5-0.25-5.75-0.25-10.25 0-10.25 8 0 3 9.5 21 11 21 18 25 4.75 3 11 3 3 0 6.75-0.5 3-0.5 4.75-0.5 6 0 7.5 9.75l1.75 14.25q0.5 2.75 0.5 4 0 6.25-7.75 6.25-7.5 0-23.75-1.25-3.75-0.25-5.5-0.25-10.5 0-10.5 8 0 3.5 9.5 21 11.25 21 18 25 4.75 3 11 3 3 0 7-0.5 3-0.5 4.75-0.5 6 0 7.25 9.75l1.5 9.5q1.5 12 1.75 34.5 0.25 11.25 7 16 7.75 5.25 27.5 11.75 14.75 5 20.25 5 3.25 0 5.75-2.25t2.5-5.25q0-2.5-1.75-8.75-1.25-5.75-4-23.75l-5-36.5q-0.5-3-0.5-5.25 0-6.5 10.75-6.5h13q7 0 10 2 2.5 2 3.5 9.75l1.25 9.25q2 13.75 2 33.75 0 11.75 7 16.5 7.5 5.25 27.5 12 14.5 5 20 5 3.75 0 6.25-2.75 2-2.25 2-4.75 0-2.75-1.75-8.75-1.25-4.75-3.75-23.75l-5-36.5q-0.75-4.5-0.75-6.25 0-5.75 8.25-5.75 18 0 23.5 0.75t7 0.75q8 0 8-8.25 0-5-12.5-29.5-10.25-19.5-21.25-19.5-4.5 0-11.25 1.25-3.25 0.75-5 0.75-5.5 0-6.75-9.5l-1.5-11.75q-0.75-4.5-0.75-6.75 0-7.5 13.75-7.5 9.75 0 18 1.25 4.5 0.75 7 0.75 3.5 0 6-2.75 2-2 2-4.5 0-5.5-9.25-23.75-9.75-18.75-16-23.25-4.25-3-8.5-3-4.75 0-11.25 1.25-3.25 0.75-4.75 0.75-4.75 0-6.25-4.75-0.75-2.75-2.75-22-2-17-2.25-28.75-0.5-14.25-7.5-20-6.5-5-30.5-13.75-14.25-5-17-5-4 0-6.5 3.25-1.75 2.5-1.75 6 0 2.25 1.25 8 4.25 21 8.25 49.5l2 14.5q0.75 5 0.75 5.75 0 8.5-10.75 8.5h-14.75q-10.5 0-11.5-10.25l-0.75-5.5q-3-20.75-3.5-41-0.5-14.5-7.5-20-6.5-5.25-30.75-13.75-14-5-17-5-8 0-8 9.25 0 2.5 1 8 4.25 20 8.5 49.5zM126 208.25h16.5q6 0 8.25 1.5 2.5 2 3.5 8.75l1.75 14q0.75 4.5 0.75 6 0 5.75-9.25 5.75h-16.5q-6.25 0-8.5-1.75-2.25-2-3-8.5l-2-14q-0.75-5-0.75-5.75 0-6 9.25-6z" horiz-adv-x="273" />
<glyph unicode="&#x24;" d="M109.25 370.5v11.75q0 9.75 3.25 13.25 3.5 3.25 13.25 3.25h21q9.5 0 13-3.25 3.25-3.5 3.25-13.25v-12q0-7.5 2.25-9.5 2.25-1.75 16.5-4.25 3.75-0.75 14-4 4.5-1.25 6.75-1.25 2.75 0 7 1.5 10.5 3.75 15 3.75 13.25 0 29.75-22.25 17.5-23.5 17.5-45.75 0-13-6.75-20.25-8-8.75-19.5-8.75-9 0-18.5 7.25-2.25 1.75-23.5 21.25-22.5 20.75-48.75 20.75-13 0-19.75-7.5-5.75-6.5-5.75-15 0-8 5-13.5 7-7.25 17.75-11 9.75-3.25 38.25-11.75 40-12 61-31 26.5-23.75 26.5-62.25 0-39.5-28.25-66-16-15.25-36.75-25-21.75-10.25-39.5-11.5-5.75-0.5-7.75-2-2.5-2-2.5-9.75v-11.5q0-9.75-3.25-13.25-3.5-3.25-13-3.25h-21q-9.75 0-13.25 3.25-3.25 3.5-3.25 13.25v11.5q0 7.25-1.75 9.25-1.5 1.75-5.5 2.25-27 3.5-51 12-18.25 6.25-24.5 13.75-7.75 9-14.75 30.5t-7 40.5q0 12 5.75 17.25 5.5 5.25 12.25 5.25 9.25 0 19.25-11.5 2.75-3.25 17-25.25 10.25-16 28.75-24 17.5-7.5 35.25-7.5 17.5 0 28.5 7.25 8.5 5.75 8.5 14.75 0 6.75-4.5 11.25-6.75 7.25-17.5 11.25-7.25 3-35 12.75-44.25 15.5-68 41.75-22.75 25.25-22.75 58.75 0 38 31.25 67 24.25 22.5 55 28.5 7 1.25 8.75 2.75 2 2.25 2 9.5z" horiz-adv-x="284" />
<glyph unicode="&#x25;" d="M191 232.5q-15.5-7.5-25.25-16.25-31-28-31-69.25 0-3.5 0.5-10.5-7.75-14.25-15.25-27.5-8.5-15-11-20.75-8.5-17.5-15-21-4.5-2.5-10-2.5-15.75 0-25 5.25-4.75 2.75-4.75 7.25 0 5.5 5.25 13.25 33.5 51.5 63 101l33 56q10.25 5.25 17.5 11 15.75 12.5 25.75 30 11.25 19.75 11.25 40 0 3.25-0.5 10.25 19.25 33.75 29.5 55 7.75 15.5 15.75 19.25 4.75 2.25 13 2.25 24.25 0 24.25-11.75 0-8.25-19.5-37-12.75-18.25-41.25-66zM113 413.5q31.25 0 56.75-20 33.25-26 33.25-63.5 0-27-18.5-50.5-17.25-21.5-45.25-32-20.75-7.75-42.25-7.75-41.75 0-67.75 24.5-23.5 22.25-23.5 56.75 0 40.5 28.75 65.25 14.25 12.5 35.5 19.75 21.25 7.5 43 7.5zM95.5 374.75q-8 0-12.25-7.75-2.75-4.5-2.75-10.5 0-25 10.5-51.75 5.5-14.25 11-18.5 4-3 9.25-3 7.25 0 11.25 6.25 3 5 3 12.75 0 21.25-7.25 44.25-9 28.25-22.75 28.25zM248.75 238.25q31.25 0 56.75-20 33.25-26 33.25-63.25 0-27-18.5-50.5-17-21.5-45.25-32-20.75-7.75-42.25-7.75-41.75 0-67.75 24.5-23.5 22.25-23.5 56.75 0 40.25 28.75 65 14.25 12.5 35.5 19.75 21.25 7.5 43 7.5zM231.25 199.5q-8 0-12.25-7.75-2.75-4.5-2.75-10.5 0-25 10.5-51.5 5.5-14.25 11-18.5 4-3 9.25-3 14.25 0 14.25 18.75 0 21.75-7.25 44.5-9 28-22.75 28z" horiz-adv-x="345" />
<glyph unicode="&#x26;" d="M164.5 421.75q20 0 41.5-6.5 43-13 43-41 0-10.5-8.5-19.25-8.75-9-19.5-9-6.25 0-10.75 3l-13.75 9.25q-12 8.25-24.5 8.25-14.5 0-23-12.25-6.5-9.5-6.5-21.25 0-18.5 13.5-26.5 5-3 10-3.5l14.5-1.75q15.25-2 15.25-21 0-20.5-17-30-7.5-4.25-27.75-7.25-11.75-1.75-11.75-22 0-25.5 16-52 14-23.5 37.25-37 21-12.25 43.25-12.25 30.25 0 53 18 21 16.5 21 41.5 0 12.25-9.75 20.5-10 8.75-22.5 8.75-20 0-35.25-25.5-6.75-11.25-13.5-11.25-8.5 0-15.25 10-7 10.5-7 25.5 0 34.75 29.5 62.5 19.25 18 55 31 33 12.25 40.5 19.25 9 8.25 9 17 0 5.5-4.25 9.25-3.75 3.25-7.5 3.25-2 0-9.25-2.75-1.75-0.75-3.75-0.75-5 0-8.25 4.25-2.25 3.25-2.25 6.5 0 10.75 10.25 20.5 9 8.5 23.25 13.5 16 5.75 31.75 5.75 27.5 0 48.5-14.25 10.25-7.25 17-19 8.25-14 8.25-30.5 0-27.5-22.75-51.75-12.5-13.25-32-24.25-18.5-10.25-18.5-17 0-3 3-6.25 1-1.25 9.25-6.5 24.75-15.75 24.75-45.25 0-23.5-18-48.25-26.75-36.5-81.25-56.75-45.5-16.75-101.75-16.75-74.75 0-128 27.75-38 19.75-59.25 58-13.75 24.75-13.75 53 0 30 19.75 51.5 11 12 25 19.5 9.25 5 9.25 8.75 0 2.75-2.5 7-15.5 26-15.5 44.5 0 28.25 22.75 52.75 18 19.25 49.25 30 26 9 50.5 9z" horiz-adv-x="448" />
<glyph unicode="&#x27;" d="M49 413.5q17.75 0 29.75-13.25 16-17.75 16-49 0-23.75-8.75-51.25-11.75-37-28.25-53.5-5.5-5.25-9-5.25-8 0-22.25 27.5-22.75 44-22.75 86.25 0 22.75 10 38.75 12.25 19.75 35.25 19.75z" horiz-adv-x="99" />
<glyph unicode="&#x28;" d="M168.25 413.75q34 0 49.5-9.75 7.5-4.75 7.5-16.25 0-13.75-6.5-21-3.75-4-9.75-4-4.5 0-10.25 0.75-15.75 2.5-20.25 2.5-14.5 0-23.5-7.5-14-11.75-24.25-39.25-15.5-40.25-15.5-80.75 0-39.5 12.75-76.25 19-54 54.25-54 7 0 15 0.75 8.25 1 10.75 1 17.5 0 17.5-24 0-24.25-49.75-24.25-69.5 0-116.5 57-27 33-40.5 74.25-9.25 28-9.25 50.75 0 38.75 22 82.25 44.25 87.75 136.75 87.75z" horiz-adv-x="229" />
<glyph unicode="&#x29;" d="M21.25 112.5q3.25 0 9-1 15.25-2.25 20.25-2.25 13.25 0 22.375 6.75t17.875 23q10.75 20.25 17.25 48.75 5.75 24.75 5.75 49 0 39.75-12.75 76.25-19 54-54.25 54-7 0-15-0.75-8.5-1-10.75-1-17.5 0-17.5 24 0 24.25 49.75 24.25 69.5 0 116.5-57 27.25-33 40.5-74.25 9.25-28.25 9.25-51 0-38.5-22-82-44.5-87.75-135.5-87.75-35.25 0-50.75 9.75-7.5 4.75-7.5 16.25 0 25 17.5 25z" horiz-adv-x="229" />
<glyph unicode="&#x2a;" d="M41 357.75l32.25-12q4.25-1.5 6-1.5 4 0 4 6v2.5l-1.5 34.5v3.5q0 14.75 4.25 18.5 4.75 4.25 23.5 4.25 19 0 23.5-4.75 2-2 3.25-10 0.5-4.75 0.5-7l-0.25-4.5-1.25-34.5q-0.25-8.5 4.25-8.5 1.5 0 5.5 1.5l32.25 12q10.5 3.75 17.5 3.75 7.75 0 13.5-15.75 6.5-17 6.5-24.5 0-9.75-20.5-15.5l-33.25-9.5q-7-2-7-5.5 0-1.75 3.25-6l21.5-27q9.5-12.25 9.5-19.25 0-5-11.25-14-18-14.25-25.25-14.25-7 0-17.5 15.25l-19 28.75q-3.5 5.25-6.25 5.25-2.25 0-6-5.25l-19-28.75q-10.25-15.25-17.25-15.25-8.75 0-28 16.25-8.75 7.25-8.75 12.25 0 6.5 9.75 19l21.25 27q3.25 4.25 3.25 6 0 3.5-7 5.5l-33 9.5q-13.75 3.75-18.25 8.5-2.5 2.5-2.5 7.25 0 9 7.5 27.5 5.25 12.5 12.75 12.5 6.75 0 17.25-3.75z" horiz-adv-x="219" />
<glyph unicode="&#x2b;" d="M84 184h-12.25q-34.5 0-49.75-1.5-3.5-0.25-5.5-0.25-5.5 0-8.75 3.5-2.75 3.25-2.75 6.5 0 3.75 6.5 22.25 8.25 23.25 14.5 27.75 4.25 3.25 10 3.25 3 0 7.5-0.5 27-2.5 34.25-2.25h6.25q14 0 13.75 13.5v16.25q-0.25 15.75-3 34.5-0.5 2.75-0.5 5.25 0 9 15.5 16 5.25 2.25 22.25 7.5 11.5 3.75 17.5 3.75 5 0 8-3.5 2.25-2.75 2.25-6 0-1.5-0.75-6.75-0.5-3.25-0.5-23.5v-43.5q0.25-13.25 13.75-13.5h38.75q19.5 0 23.5 0.5 5.25 0.75 6.75 0.75 4 0 6.75-3 2.75-2.75 2.75-6.75 0-6.75-6-24.75-7-20.75-12.75-25.75-3.75-3.25-8.5-3.25l-39.75 3.5h-11.5q-14.75 1-13.75-13.75v-4q-0.25-18.75 2.5-41 0.5-4.5 0.5-7.75 0-10.75-15.5-18-7.5-3.5-21.875-8.125t-17.875-4.625q-4.25 0-7.5 3.5-2.75 3-2.75 8.25 0 2 0.25 5.25 1.5 18 1.5 49.75v16.75q0.75 14.5-13.75 13.75z" />
<glyph unicode="&#x2c;" d="M70.5 190.25q18.25 0 35-11.5 18.5-12.75 27.75-38.75 6.75-19 6.75-39.75 0-25.25-10.75-57-15.75-47-37.75-67-12.25-11.25-26.25-11.25-12.25 0-20.5 8-6.75 6.25-6.75 13.25 0 4.25 10.5 20.75 8.25 13.25 13.75 30 2.25 6.25 2.25 10.75 0 6-2 8.875t-7.25 4.875q-18.5 7-26.25 13.5-23.25 19.75-23.25 51 0 24.75 16.25 42.5 20 21.75 48.5 21.75z" horiz-adv-x="146" />
<glyph unicode="&#x2d;" d="M50.75 245.5q4.25 0 11.75-0.75 32-3.25 46.25-3.25 16.25 0 23.5 1.25 8.25 1.25 11 1.25 8 0 8-11.75 0-24-17.25-59-6.5-13.75-11.5-17.5-3.75-3-8.25-3t-12.25 1.25q-21.75 3.75-50.75 3.75-12.5 0-22.75-1-8.5-0.75-12.5-0.75-10.25 0-10.25 11.5 0 6.25 5 24.5 9.75 35.5 24 48.5 5.75 5 16 5z" horiz-adv-x="158" />
<glyph unicode="&#x2e;" d="M71.25 189.75q17 0 34-10.25 16-9.5 24-27 6.25-13.5 6.25-27.75 0-28-19.5-46.5-8.5-8.25-21.125-13.25t-24.125-5q-17.75 0-34.75 10.25-16 9.5-24 27-6.25 13.5-6.25 27.5 0 28.75 19.5 46.75 19.75 18.25 46 18.25z" horiz-adv-x="141" />
<glyph unicode="&#x2f;" d="M53 190.25l49 113.75q13.25 33.25 23.25 57 7.75 18.5 11.5 29.5 5.5 14.75 11 19.25 5 3.75 16.25 3.75 21.75 0 33.75-7 7.25-4.25 7.25-12 0-8.75-6.25-21-34.5-69.25-43.25-89.5l-49-112.75q-18.25-42-24.75-58.75-12.75-34-17.75-41-7.25-9.75-20.75-9.75-21.5 0-34.5 10-5.25 4.25-5.25 10.75 0 7.5 4.5 16.75 5.75 11.75 21.75 42.25 12.75 24.25 23.25 48.75z" horiz-adv-x="209" />
<glyph unicode="&#x30;" d="M143.75 355.5q34.25 0 66-16.75 43-22.5 64.25-67 15.75-32.5 15.75-69.25 0-66.75-51.5-109.75-39-32.5-89.25-32.5-55.25 0-94.5 36.25-46.25 43-46.25 114.25 0 69.75 42.25 109.5 37.25 35.25 93.25 35.25zM137.25 281q-22.5 0-22.5-39.25 0-51.75 19.75-93.25 7.75-16 20.75-16 11.5 0 17 10.25 5.75 10.75 5.75 29 0 34.5-9.25 68.25-11.25 41-31.5 41z" horiz-adv-x="298" />
<glyph unicode="&#x31;" d="M25.75 115.75q2.25 0 15.75-1.75 6.75-1 10-1 20.75 0 24 33.5 1.75 19.25 1.75 107.75 0 15.5-7.5 20.5-5.75 3.75-17.75 3.75-3.5 0-10.25-0.75-5.25-0.5-9.25-0.5-11.25 0-16.25 8.75-2.25 3.75-2.25 8 0 12 18.5 23.75 21.75 13.5 68.5 24.75 47.75 11.25 94.5 11.25 40.75 0 40.75-21.5 0-7.25-5.25-12-2.25-2.25-11-6-15.25-6.75-18.25-18.75-1.75-7.25-2-19.75l-1-54q2-67 2.25-71.75t2.25-13.25q3.25-14.5 14-19.75 7.5-3.75 14-4l12-0.5q23.5-1 23.5-19.5 0-18.75-33.25-24.75-46-8.25-95-8.25-43.5 0-81.5 7.25-40 7.5-48.75 17-4.75 5.25-4.75 12.25 0 9.25 8 15 6.25 4.25 14.25 4.25z" horiz-adv-x="271" />
<glyph unicode="&#x32;" d="M196.25 67h-170.25q-22.5 0-22.5 12.75 0 6.5 6.75 14.5 2.75 3.25 29 27.75 48.25 45.5 71.5 84.5 12 20.25 12 34.5 0 12-7.25 20-7 7.5-19.75 7.5-12.5 0-22.5-6.25-2.5-1.75-21.25-17.25-5.75-4.75-14.75-4.75-11.75 0-21.75 9.5-9.75 9-9.75 19.5 0 11.75 13 27.25 22.5 26.75 67.25 43.75 35.75 13.5 72.5 13.5 50 0 82.75-19.25 16.25-9.75 25.5-28.25 7.25-14 7.25-29.25 0-43.5-61-95-21.5-18.25-21.5-27.25 0-3.75 2.75-7.75 6.25-8.75 19.25-8.75 22.5 0 40 17 8.5 8.5 11.375 10.25t7.875 1.75q22.25 0 22.25-37.5 0-26-13-51.25-18.25-35-42-35-4.75 0-8.5 1.5-4.25 1.75-10.25 11-4.25 7-8.875 9t-16.125 2z" horiz-adv-x="298" />
<glyph unicode="&#x33;" d="M130.5 353.75q48.25 0 85.5-18 17.25-8.25 26.75-25 5.5-10.25 5.5-22.5 0-14.25-6.625-25.75t-21.875-23.75q-8-6.5-8-10.75 0-6.25 14.5-9.5 28.5-6 42-17 25.25-20.5 25.25-57.75 0-39.5-27.5-72-26.25-31.25-76.75-45.75-36.75-10.75-80-10.75-51.5 0-88 14.25-23.5 9-23.5 26.25 0 11.25 8.75 19.25 7.5 6.5 18 6.5 6.5 0 34-6.5 9.25-2.25 26-2.25 29.5 0 47.25 14 19 14.75 19 33.5 0 13.25-10.25 25.25-13.5 15.25-41.25 15.25-14.75 0-25.75-3.25-6.5-2-9.75-2-6.5 0-12 11-8.25 16-8.25 28.25 0 5 3.5 8.25 1.75 1.5 20.5 7.75 16 5.25 30.5 20 11 11.5 11 24 0 14-11.75 25-11 10.25-26.5 10.25-12 0-24.5-5.75-6.25-2.75-16.5-8.25-5.25-2.75-8.5-2.75t-6.5 3q-10.75 9.75-10.75 24.5 0 16.75 30 31.75 18.5 9.5 46.25 15.5 25.5 5.75 50.25 5.75z" horiz-adv-x="299" />
<glyph unicode="&#x34;" d="M261.5 346v-173q0.25-9 2.25-10.75 2.75-2.5 7.75-2.5h10.5q11.75 0.25 12.25-14.25v-50.75q0-6.5-2.25-9.75-2.25-4-11.25-5.25-10-1.25-11.75-4.25-1.5-2-1.5-9.75v-29.5q1-15.75-14.5-16.5h-85.5q-10.75 0.25-13.25 5.25-1.25 2.75-1.25 11.25v25.75q0 10.5-4 14.75-3.25 4-14 4h-97.5q-14.75 0-22.5 5.5-9.25 6.75-9.25 25.75 0 25.5 5.75 39 6.75 16.75 40.25 56.5l63.5 76.25q48.25 57.75 70.5 73.25 11.25 7.75 28.5 12.5 12.5 3.5 24.25 3.5 12.75 0 18.25-7.25 4.75-6 4.75-19.75zM126.25 240.75l-38.5-47.25q-16.75-20.75-16.75-30 0-6.25 7.5-8 12.25-3 53.25-3 15.25 0 20 4.5 3.25 3.25 3.75 14.75 1 29 1 53.25 0 15.5-3.25 21-3 5-9 5-9.75 0-18-10.25z" horiz-adv-x="300" />
<glyph unicode="&#x35;" d="M83 350.25h177.75q9.75 0 12.75-3.25 4.5-4.75 4.5-17 0-27.5-13.5-49.25-11.25-18-28.5-18h-113q-19 0-19-15 0-6.25 4.25-8.5 4.25-2.5 19.25-4 56.25-6.25 94.75-24.25 28.5-13.5 46-39 12.5-18.25 12.5-40 0-35-30.25-66.25-28.75-30-78.5-43.25-31.25-8.5-67.75-8.5-37 0-67 9.5-16.5 5-23.25 13.75-4.5 5.75-4.5 15.75 0 14 6.75 24.25 2.5 3.5 6.5 3.5 3 0 7.75-1.25 29.5-8 48.25-8 24.25 0 37.25 12 9.75 9 9.75 21.25 0 18.25-20.5 31-19.75 12-50.25 17-31 5-34.5 6.5-14.75 5.75-14.75 18.25 0 18.5 17.75 73.5 24.25 75 37 90.75 5 6.25 10.5 7.5 3.75 1 12 1z" horiz-adv-x="287" />
<glyph unicode="&#x36;" d="M123.5 392.25q7.75 0 23.5-4.25 24.75-6.25 36.5-15.75 6.75-5 6.75-8.25 0-3.75-4.25-9.75-1-1.5-17-19.5-14.5-16.25-22.25-36-3.5-9.25-3.5-13.25t3-7q2-2 4.75-2t18 5.5q21 7.5 39.25 7.5 31.25 0 57-20 17.25-13.5 26.75-33 9.5-19.75 9.5-41.5 0-37.75-22-72-40.25-63-120-63-65.5 0-106.25 38.25-22.5 21.25-34.75 53.25-10.25 27-10.25 54 0 63 50.75 129.5 37.25 49.25 54.75 55.5 4.5 1.75 9.75 1.75zM150.5 218.75q-9 0-15.25-6-8-7.5-8-23.5 0-17.5 13-38 15-23.5 31.75-23.5 10.25 0 17 6.5 5.75 6 5.75 15.5 0 28.25-17.5 53.5-11 15.5-26.75 15.5z" horiz-adv-x="310" />
<glyph unicode="&#x37;" d="M286.5 320.5l-101.5-307.5q-2.25-6.5-8-8.5-6-2.25-18.25-2.25-46.25 0-69.25 17.25-6.75 5-6.75 10 0 2.5 2 6.25l93.25 178.25q10.5 20.25 10.5 27.75 0 9-10 12.25-12 4-45.75 4-37.5 0-53.75-4.75-7-2.25-12.5-9.5-7-9.75-12.25-12.5-7-3.75-15-3.75-16.5 0-25.75 13.75-10 14.5-10 41.25 0 33.75 12 56.5 7.75 14.25 21 21.75 5.75 3.25 11.25 3.25 5.75 0 25.25-8.75 12.5-5 31-5h160.75q11 0 16.25-3.5 7.75-5.25 7.75-14.5 0-5-2.25-11.75z" horiz-adv-x="291" />
<glyph unicode="&#x38;" d="M152.25 383.75q52.5 0 96.75-17.25 24-9.5 39.25-29.25 11-14.25 11-33 0-28.75-32.5-50.25-9.75-6.5-9.75-10 0-3.25 12-11.5 15.75-11 25.5-28.5 10.25-18.5 10.25-38.25 0-28.75-21-56.5-37.25-49-118-49-56 0-99.25 19.75-29.25 13.5-45.75 37.25-12.5 17.75-12.5 41.5 0 31.75 29.75 53.25 11 8.25 11 11.75 0 3.25-9.5 12.5-23.75 22.75-23.75 54.5 0 44 44.25 70.25 38 22.75 92.25 22.75zM163.5 337.75q-10.25 0-17.5-5-8.25-5.75-8.25-14.5 0-9.25 11-20.25 15-14.75 32.75-20 4.5-1.25 7.75-1.25 5.5 0 9.75 6.5 7 10.5 7 22 0 15-11 22.75-13.75 9.75-31.5 9.75zM103.75 188.75q-4.75 0-7.5-3.5-4.75-5.75-4.75-15.5 0-13 8.25-27.75 8.75-16 26-24.25 13.75-6.75 27.5-6.75t23.5 6.25q10 6.25 10 18.75 0 14.75-13 23.25-19.25 12.25-44.75 22.5-17.5 7-25.25 7z" horiz-adv-x="313" />
<glyph unicode="&#x39;" d="M154 353.75q49.75 0 91-22.75 54.5-30.25 54.5-97.75 0-55-35.5-115.25-39.25-66.75-93-106.25-12.25-9-21.5-9-15.25 0-40.75 13.75-22.5 12-22.5 20.25 0 5 15 14.75 18.25 12 31.5 33 12.5 19.5 12.5 31 0 9.5-10 9.5-4 0-17-1.5-2.75-0.25-8-0.25-39 0-63.5 23-20 18.75-30.25 46.5-8.25 23-8.25 47 0 53.25 40.75 82.5 43.5 31.5 105 31.5zM150.25 282.25q-9.75 0-16.5-8-8.5-9.5-8.5-23 0-18.25 7.5-35.5 12.25-27.75 34.75-27.75 12 0 18 9.5 5 7.75 5 17.25 0 23.25-12 46.5-11 21-28.25 21z" horiz-adv-x="308" />
<glyph unicode="&#x3a;" d="M118.25 187q-19 10-36 10-17.25 0-36-10-28.75 19.25-28.75 54 0 28 19.5 46.75 7.5 7.25 18.5 12 13.75 6.25 26.75 6.25 17.5 0 34.5-10.25 16-9.5 24-27.25 6.25-13.5 6.25-27.5 0-34.75-28.75-54zM83 190q16.75 0 34-10.25 16-9.5 24-27 6.25-13.5 6.25-27.75 0-28-19.5-46.5-8.75-8.25-21.25-13.25t-24-5q-17.75 0-34.75 10.25-16 9.5-24 27-6.25 13.5-6.25 27.5 0 28.5 19.5 46.75 19.75 18.25 46 18.25z" horiz-adv-x="153" />
<glyph unicode="&#x3b;" d="M119 185.75q-18.5 11-37.75 11-16.25 0-34-9-27.25 20.5-27.25 53 0 28.25 19.5 46.75 7.5 7.25 18.5 12 13.75 6.25 26.75 6.25 17.5 0 34.75-10.25 15.75-9.5 23.75-27 6.25-13.75 6.25-27.75 0-28.25-19.5-46.75-4.25-4-11-8.25zM82.25 190.25q18.25 0 35-11.5 18.5-12.75 27.75-38.75 6.75-19 6.75-39.75 0-25.25-10.75-57-15.75-47-37.75-67-12.25-11.25-26.25-11.25-12.25 0-20.5 8-6.75 6.25-6.75 13.25 0 4.25 10.5 20.75 8.25 13.25 13.75 30 2.25 6.25 2.25 10.75 0 6-2 8.875t-7.25 4.875q-18.5 7-26.25 13.5-23.25 19.75-23.25 51 0 24.75 16.25 42.5 20 21.75 48.5 21.75z" horiz-adv-x="158" />
<glyph unicode="&#x3c;" d="M238.75 414.75v-111.25l-103.75-63.25 103.25-63.25 0.5-110.5-221.75 127.75v93z" />
<glyph unicode="&#x3d;" d="M84.5 287h126.5q19.5 0 23.5 0.5 5.25 0.75 6.75 0.75 4 0 6.75-3 2.75-2.75 2.75-6.75 0-6.75-6-24.5-7-20.75-12.75-25.75-3.75-3.25-8.5-3.25l-39.75 3.5h-112q-33.25 0-49.75-1.5-3.25-0.25-5.5-0.25-5.5 0-8.75 3.5-2.75 3-2.75 6.5 0 3.75 6.5 22.25 8.25 23.25 14.5 27.75 4.25 3.25 10 3.25 3 0 7.75-0.5 24-2.5 40.75-2.5zM84.5 198.25h126.5q19.5 0 23.5 0.5 5.25 0.75 6.75 0.75 4 0 6.75-3 2.75-2.75 2.75-6.75 0-6.75-6-24.5-7-20.75-12.75-25.75-3.75-3.25-8.5-3.25l-39.75 3.5h-112q-33.25 0-49.75-1.5-3.25-0.25-5.5-0.25-5.5 0-8.75 3.5-2.75 3.25-2.75 6.5 0 3.75 6.5 22.25 8.25 23.25 14.5 27.75 4.25 3.25 10 3.25 3 0 7.75-0.5 24-2.5 40.75-2.5z" />
<glyph unicode="&#x3e;" d="M17 66.5v111.25l103.75 63.25-103 63.25-0.75 110.5 222-127.75v-93z" />
<glyph unicode="&#x3f;" d="M158.5 190.75q-15.5 6.25-28.75 6.25-16.5 0-35-9.5-5.5 10-5.5 20.5 0 14.75 7.5 32 2 4.25 21.25 33.25 17.75 26.75 17.75 50.5 0 11.5-5.5 19.5-5.25 7.5-13.25 7.5-8.25 0-12.5-7.5-2-3.75-3.5-18.25-2.5-28-16.75-42.75-14.5-14.75-37.75-14.75-17 0-28 9.75-12.75 11.25-12.75 29 0 30.75 23 59.75 22.75 28.5 65.5 38.25 17 4 34 4 30 0 60-13.25 31.25-13.75 49-38.5 17-23.75 17-51 0-31.75-24.75-53.5-6.75-5.75-38.5-22.5-18-9.5-23.5-19.5-3.75-8.25-9-19.25zM130.75 189.75q17 0 34-10.25 16-9.5 24-27 6.25-13.5 6.25-27.75 0-28-19.5-46.5-7.5-7.25-18.5-12-13.75-6.25-26.75-6.25-17.75 0-34.75 10.25-16 9.5-24 27-6.25 13.5-6.25 27.5 0 28.75 19.5 46.75 19.75 18.25 46 18.25z" horiz-adv-x="261" />
<glyph unicode="&#x40;" d="M239.25 415q68.75 0 109.75-38 20-18.5 31.5-46 11-26 11-52.5 0-39.75-22.25-74.75-24-38-71-54.5-24.25-8.5-45.25-8.5-23 0-33.25 12.25-4 4.75-7 16.75-1.25 4.75-4.5 4.75-3.75 0-9.75-6-25.75-25.75-52-25.75-22.75 0-37 15.5-13.75 15.25-13.75 41.5 0 46.5 28.75 85.75 20.25 27.75 46 39.5 16 7.25 30.5 7.25 15 0 33.25-11 6-3.5 9.25-3.5 2.25 0 7.25 2.5 24.5 11.75 39.5 11.75 17.5 0 17.5-14.5 0-9-3.75-23.25-17.75-67.5-17.75-88.5 0-9.25 8.75-9.25 12 0 27 15.25 11.25 11 18.25 27.75 8.75 20.25 8.75 41.75 0 39.5-25.75 65.5-30 30-87.5 30-76.75 0-127.75-50.25-31-30.25-46.75-76-10.25-29-10.25-58.25 0-54.75 42-78 28.75-16 70-16 52.5 0 97.75 21.5 12 5.75 19.75 5.75t12.5-5q3.75-4 3.75-9.25 0-11.5-16.25-22.5-42-28.5-114.25-28.5-67 0-107 27.75-28.5 19.75-41.25 52-9.75 24.5-9.75 52.25 0 58 31.25 112 38.75 67 109.5 94.75 40.25 16 90.25 16zM221.75 289.25q-7.5 0-20.25-17.5-12.75-18-18.5-41.75-2.25-10-2.25-17.5 0-11 6.5-11 6.75 0 17 15.5 10.75 16.25 17.75 36.25 5.5 16 5.5 26.75 0 9.25-5.75 9.25z" horiz-adv-x="400" />
<glyph unicode="&#x41;" d="M336.5 239.75l47.25-101.25q7.5-15.25 12.75-19.75 3.75-3.25 12.25-4.5 18-2.75 18-18.25 0-12.75-12.25-21.25-18.5-13-80.5-13-81.5 0-98.75 9.5-13.5 7.75-13.5 20.5 0 8.5 6 14 2.5 2.25 12.25 5.75 11.75 4.25 11.75 13.25 0 17-20.25 20-21.75 3-61.5 3-33 0-39.5-4-3-2-6.25-7.75-3.75-6.5-3.75-14 0-6.25 4.75-8.5 1.25-0.75 11.5-3.75 15.25-4.5 15.25-18.25 0-29.75-71.75-29.75-40 0-59.25 5.75-17.5 5-17.5 22.75 0 10.5 8.25 15.75 3 2 9.5 4.25 15.5 5.5 22.5 13.5 9.25 11 26 47l35.25 77.25q26.75 58.5 29.75 77 3.25 14.25 3.25 27.75 0.5 25.5 4 33.75 7 15 24.25 23.5 14 6.75 29 6.75 25 0 48.25-19.75 32.25-27 93-157.25zM162.5 208.25h49q13.5 0 13.5 5.75 0 6-9.75 24-14.5 27.5-21.25 35.25-5 6.25-10.75 6.25-7.75 0-14.5-16.75-17.75-43.75-17.75-48.5 0-6 11.5-6z" horiz-adv-x="431" />
<glyph unicode="&#x42;" d="M142.25 67.25l-33.5-0.25q-35.75-0.25-51.5-1.5-14.5-1.25-21.5-1.25-14.5 0-23.5 7.75-8.75 7.75-8.75 18.5 0 7.75 5.75 14 1.75 1.75 13.25 9.5 5.25 3.75 7.875 9.875t4.625 20.125q8.25 52.75 8.25 165.75 0 31.25-5.5 41.75-3.5 7.25-16.5 12.75-16.5 7-16.5 20.5 0 9.5 8.75 17 9 8 26.25 8 8.25 0 22-0.75 23.25-1.25 49.25-1.25 15 0 72 1.75 18.25 0.5 32.5 0.5 42.75 0 65.25-9.5 27.25-11.5 39.25-35 8-15.75 8-34.5 0-19-8.5-36-7.25-14.75-18.25-23.75-9-7.5-9-12.75 0-6.25 10.75-10.75 20.75-8.5 37-27.5 17.25-20.5 17.25-48.75 0-38.25-26.25-68-34.75-39.25-102-39.25-8.25 0-46.25 1.5-35.75 1.5-40.5 1.5zM159.5 338.5v-51.5q0-14.25 4.25-18.75 2.75-3.25 10-3.25 16.75 0 24.75 8.25 11.25 11.5 11.25 38.5 0 29.25-13.5 41.5-8.75 7.75-21.25 7.75-6.75 0-10.75-3.5-4.75-4-4.75-19zM159.5 194.5v-23.75q0-38 6.5-47 5-7.25 17.75-7.25 37.75 0 37.75 44.5 0 34.25-15.5 46.75-11 8.75-27 8.75-9.25 0-14-3.5-5.5-4.25-5.5-18.5z" horiz-adv-x="365" />
<glyph unicode="&#x43;" d="M197.75 415.25q36.75 0 70.5-16.25 16-7.5 22.25-7.5 4.25 0 14.5 2.5 3.25 0.75 7.25 0.75 13 0 22.75-12 24-29.25 24-72.25 0-30-20.75-44-11.5-7.75-25.25-7.75-13 0-22.25 6.75-6.75 4.75-14 18.5-10.5 19.5-17.375 28.375t-16.875 15.875q-24 17-50.75 17-24.25 0-39.5-17.5-16.25-18.75-16.25-51 0-43 22-78.75 29.25-48 84.25-48 19.75 0 38.75 6.25 20.75 7 32.25 18 9.5 9.25 15.5 9.25 9 0 15.5-9 5.75-8.25 5.75-18.25 0-20.5-14.75-44.25-10.25-16.25-20.75-21-2.75-1.25-16-3.75-9.5-1.75-25.25-9.25-37.25-18-77-18-41.5 0-83.25 19-48.25 21.75-76.25 66.5-27.5 44-27.5 91.75 0 55.25 34.5 101.25 30 39.75 78.25 60.75 37 16 75.75 16z" horiz-adv-x="363" />
<glyph unicode="&#x44;" d="M111.5 67h-18q-15.5 0-35.5-1.5-11.75-1-17.5-1-15.5 0-26.5 7.75-10.5 7.5-10.5 20.5 0 9.25 6.25 15 3.5 3.5 13.5 6.25 11.25 2.75 14.75 10 4 9 6.25 54.5 3.25 71.25 3.25 148.5 0 19.5-4.25 27.25-3 5.75-14.25 9.75-17.25 6.5-17.25 22.25 0 12.5 13 19.75 11.25 6.25 31.75 6.25 6.75 0 16.75-0.25 20-0.75 30.75-0.75 34.25 0 80.5 2.25 11.5 0.5 24 0.5 56.5 0 90.25-13.25 49.25-19.5 74.5-65.25 22.25-40.5 22.25-93.75 0-63.75-30.5-108.5-29-42-80-59-30-10-62.75-10-5.75 0-31.5 1-52.5 1.75-79.25 1.75zM164 338v-193.5q0-17.75 8.75-24 6.75-5 21-5 31.5 0 49.25 21.5 13.5 16.25 18 36.5 5.5 24 5.5 52.75 0 61.5-17 95.25-19 37.25-63.5 37.25-13.25 0-17.75-5.25-4.25-5.25-4.25-15.5z" horiz-adv-x="406" />
<glyph unicode="&#x45;" d="M56.25 408.25h128.5q51.75 0 72 3.25 6.5 1 19.75 5 5.25 1.5 8.5 1.5 12.75 0 22.75-13.75 16.5-23 16.5-55.75 0-17.5-8.25-26.5-7-8-17.75-8-8.75 0-13.5 4-4 3.25-11.5 14.75-12.25 18.25-33.25 23.75-15.5 4.25-47.25 4.25-29.25 0-36.5-8.5-4.5-5.25-5.5-17.5-0.5-5.75-0.5-41.25 0-19 3.5-23 4.25-4.75 27.25-4.75 11.75 0 16 4.75 4.5 4.5 5.75 15.25 2.5 19 5.25 23.25 6.5 10.75 17.5 10.75 10.25 0 17.75-9.75 6-8 9.5-29 3-17.75 3-35.25 0-39.25-12.25-64.75-6.75-13.75-20.5-13.75-8.75 0-12.5 5.75-2.5 3.25-4.25 17-2.5 17.75-13.25 24-7.75 4.25-20 4.25-12.5 0-16.75-10.75-2.5-6.75-2.5-21.75 0-18.25 3.5-47.75 1.5-13.25 7.25-16.25 10-5.25 42.25-5.25 43.25 0 62.25 13.75 14.75 10.75 24.25 30.75 7 14.5 12.625 19.5t14.625 5q10.5 0 17.25-9 7-9.25 7-22.75 0-20.25-13-50.75-12.75-29.5-22.25-37.5-4.25-3.75-10-3.75-5.5 0-14.25 1.5-15.75 3-42.75 3.75h-212q-14.75 0-21 6.75-5.75 6.25-5.75 14.75 0 8.25 5.25 12.75 2 1.5 11.5 6 10.25 4.5 13.5 12.25 11.5 26.75 11.5 111.5 0 96.5-12 121.75-3 6.25-8.5 8.75-1.5 0.75-9.5 3-14.25 4.25-14.25 19 0 15.5 14 21.25 8.25 3.5 41 3.5z" horiz-adv-x="349" />
<glyph unicode="&#x46;" d="M189.25 356.75q-14.75 0-19.5-6.75-2.75-4.25-5-16.75-4.25-23-4.25-45.25 0-10.25 6.25-13.25 6.5-3 21.75-3 10.5 0 16.75 4 5 3 7.25 13.5 5.75 27.25 23.5 27.25 30.5 0 30.5-73.25 0-45.75-13.25-67.75-8-13.25-22.5-13.25-14.25 0-16.5 19.75-1.5 15.5-4.5 20.5-8.25 15.25-29 15.25-12.5 0-16.5-4.5-3.25-3.25-3.25-40.25 0-44.25 11.75-53.5 3.75-2.75 20-5.25 5.75-1 10-5.5 5.5-6.25 5.5-15 0-18.75-22.75-24-32.5-8-91-8-51.5 0-71.25 6-9.75 3-15.75 12-4 6-4 14 0 11 8 17.75 2 1.5 13.75 6.25 14 5.5 16.75 25.5 4.5 30.75 4.5 147 0 44.75-4.75 59.75-3 9.5-14.25 14.5-13 5.75-15.75 9-4.5 5.75-4.5 12.75 0 7.25 4.75 12.75 11.5 12.75 32.25 12.75 10 0 29.5-1.5 39.75-3.25 96.75-3.25 91.75 0 123 4.75 4.25 0.75 7 0.75 8.25 0 16.25-10 22-28 22-62.5 0-19.5-11.25-28.25-6.75-5.25-15-5.25-9.25 0-16.75 6.5-1.75 1.25-19.5 21.5-5.25 6-16.25 12.5-17 9.75-70.75 9.75z" horiz-adv-x="342" />
<glyph unicode="&#x47;" d="M200.25 415.25q31.75 0 61.25-9.25 13-4 17.5-4 5.25 0 21.25 5.5 5.25 1.75 10.75 1.75 14 0 26.75-16.5 20.5-26.75 20.5-58 0-25.75-14.75-38.75-10.25-9.25-24.75-9.25-14.75 0-28.75 10.5-4.25 3.25-20.75 23.5-27.25 33.75-63.25 33.75-33.75 0-53.5-26.5-17.25-23-17.25-61.25 0-59.75 30.5-101.5 13.5-18.25 34.25-28.25 12-5.5 25.25-5.5 14.5 0 22.5 10.5 7 9 7 20.25 0 11.75-7 17-3.5 2.75-8.25 2.75h-11.5q-11 0-18 7.25-6.75 7-6.75 17.5 0 16.5 18.5 25.25 27 13.25 78.75 13.25 41.75 0 71-9 27.25-8.25 27.25-30.5 0-9.75-6.75-16.25-6.5-6-15.75-7.25-8.5-1.25-11-3.5-2.75-2.75-5.75-13.25-11.5-40.5-42-66.5-23.5-20-56.5-30-29-8.75-59.75-8.75-54 0-100 25.25-47 25.75-71.5 72-20.5 38.5-20.5 81.25 0 47.25 24.5 88 26.25 43.75 72.75 67.5 41.25 21 93.75 21z" horiz-adv-x="402" />
<glyph unicode="&#x48;" d="M115 413.75q77.25 0 77.25-32.25 0-8.75-6.25-17-2-2.75-13-9.5-8.5-5.25-11-11.25-4-10-4-44.5 0-17 6.5-21 5-3 14.5-3.25 19-0.25 33.75-0.25 26 0 32.25 3.25 5.5 2.75 5 17.25v7.5q-0.75 47-14.75 52.25-9.5 5.5-12.25 8.25-5.75 5.75-5.75 14 0 14 13.5 23.5 18.5 12.75 80.5 12.75 38.75 0 63.75-7 14.25-3.75 21.75-14.5 3.5-5.25 3.5-13 0-15-15.5-22.5-10.5-5-13-9.75-5-9-6-39.5-2.25-65.75-2.25-110.25 0-49 3.75-63 2.25-8.5 6.75-12 0.75-0.75 13.25-8 9.5-5.25 9.5-16 0-18-20-26.5-23-9.75-76.25-9.75-84.75 0-84.75 33.5 0 14.25 14.75 22.25 9.5 5.25 12.25 13.25 7.25 21 7.25 59.5 0 16.25-4.5 21-3.75 4-23.25 4-47.25 0-58.75-5.25-3.75-1.75-5.25-9.25-2-11-2-36 0-24.25 8.25-36.75 2.75-4.25 13.25-10.5 10.5-6 10.5-20 0-17.75-22.5-25.75-27.25-10-71.25-10-91 0-91 34.5 0 8.75 7.25 15.75 2 2 14 8.25 7.25 3.5 10.125 9t4.375 18.75q3.75 29 3.75 76 0 9-0.25 21.25-1 56-1 67.75 0 27.5-7.25 34.25-3.75 3.5-16.75 9.75-11 5.25-11 16.5 0 10.5 10.5 19.5 15.25 13 61 18.5 18.75 2.25 36.75 2.25z" horiz-adv-x="401" />
<glyph unicode="&#x49;" d="M110.75 413.5q28 0 53.25-5 34-6.75 34-28.75 0-8.5-7-14-1.75-1.5-13.5-7.5-12.5-6.25-15.25-25-3.5-24.5-3.5-74.75 0-97 4.75-119.75 2-9.5 8.25-14 3.25-2.5 9.75-5.5 16.5-7.75 16.5-22.5 0-15-19.75-23.25-28.25-11.75-91.25-11.75-81.75 0-81.75 30.75 0 11.75 16 21.25 12.25 7.5 14.5 20.5 4.75 28.75 4.75 129 0 56-6.5 74.25-3.5 10.25-16.75 18.5-10.25 6.75-12.75 10.25-4.5 6-4.5 12.75 0 16 27.25 23.75 39.25 10.75 83.5 10.75z" horiz-adv-x="202" />
<glyph unicode="&#x4a;" d="M223.75 413.5q27.5 0 56.5-5 26-4.5 36-12.75 8.25-7 8.25-17.5 0-8.75-6.75-15-2.25-2.25-13.25-8-13.5-6.75-16.5-17.75-2-7-2.5-23.25l-1.5-55.25q-0.75-66.25-1.375-79.375t-3.125-25.625q-7.25-36.5-29.25-57.25-20.75-19.5-53.5-29-25.75-7.5-52.25-7.5-36.25 0-71 12-70 24-70 82 0 25.25 16.75 42 16 15.75 38.5 15.75 23.5 0 39.5-13.75 16.5-14 16.5-34.25 0-5.75-3-18-0.75-2.5-0.75-5.75 0-8 6.25-13 6-4.75 14.75-4.75 15.5 0 26.5 14.25 10.75 14.25 10.75 40.25l-0.25 22.75-0.5 61.25q-2.25 55.75-3.5 65.5-2.5 15.25-11.25 22-3.25 2-16.5 5.5-6.25 1.5-10.75 7.75-3.75 5.25-3.75 12 0 21.25 27.5 29.75 33 10 73.5 10z" horiz-adv-x="329" />
<glyph unicode="&#x4b;" d="M294.5 340l-26.75-25.75q-14.75-14.25-14.75-25.5 0-7.75 5-15.25 5-7.25 11-14.25l93.5-108.25q9.75-11.25 14.5-16 5.25-5.25 17-10.5 13.5-5.75 18-11.5 6.75-8.5 6.75-19.5 0-26.5-37.75-26.5h-94.75q-10 0-16.25 5-4.25 3-17 20.25-19.5 27-51.5 61.5-13.75 15.25-19.75 20-5.75 4.5-10.25 4.5-14.5 0-14.5-27.25 0-25 13.75-34 17.25-11.25 17.25-24.25 0-17-22.5-24.5-19.75-6.5-73.75-6.5-46 0-67.25 5.75-8.75 2.25-14.75 9-5.5 6.25-5.5 15 0 13 15 22.5 6.75 4.25 9.5 9.75 10.5 19.5 10.5 100.75 0 54-1.25 72.5-2.75 35.25-9.25 48-2.75 5.5-12.5 11-14 8-14 22 0 13.5 11.5 21.5 19.5 14 89.25 14 39.25 0 58-7.75 17.25-6.75 17.25-24.75 0-8.25-5-14.5-1.25-2-11.25-10-4-3.5-7.5-17.5-3.25-13.25-3.25-25.25 0-21 9.5-21 6.25 0 13.75 7.5 4.25 4.25 16.25 19.125t15.5 19.875q6 9.25 6 15 0 4.75-4.75 14-3.25 6.5-3.25 11.5 0 11 8.75 19.25 15 14.5 79 14.5 38.75 0 57.5-5.25 22.75-6.25 22.75-26.25 0-11.25-8.25-19-6.5-6.25-18.5-6.75h-14.25q-10.5 0-17.5-2.25-7-2.5-19.25-14z" horiz-adv-x="422" />
<glyph unicode="&#x4c;" d="M162.25 299v-114.75q0-38.75 6.75-50 8.25-13.25 33.5-13.25 34.75 0 52.25 17.5 11.25 11.25 17 34 4 16.25 17 16.25 11.75 0 19.5-9 10.5-12.25 10.5-34 0-30.75-23-66-7.5-11.75-13.5-16-5.25-3.75-12.25-3.75l-55.75 7h-174.75q-17.25 0-24.25 4-10.25 5.75-10.25 17.25 0 7.5 6 12.75 1.75 1.75 13.75 7.25 14.25 6.75 18.25 19.25 3.25 10 3.25 65 0 19.25-1.25 60.75-1.25 42.25-1.5 62.5 0 23.5-4.5 30.5-2.5 4.5-11.75 7.75-14.5 5-18.5 7.25-10.5 7-10.5 16.25 0 14 20.25 23.75 25.5 12.25 79.5 12.25 69.25 0 89.75-11.75 13.5-7.75 13.5-19.5 0-11-9.75-17.25-2.5-1.5-14.75-6.75-10-4.5-12.25-15.25-2.25-7.75-2.25-44z" horiz-adv-x="322" />
<glyph unicode="&#x4d;" d="M254.25 170.5l-30-67.25q-7.5-16.75-12.75-23.25-4.5-5.5-10.25-5.5-5.5 0-9.75 5-2 2.25-6.75 11-14.5 27.5-22.25 44.5l-33 74.25q-6.75 15.5-14.5 15.5-6.25 0-8-8.75-2.25-11-2.25-60.5 0-24.75 2.5-33.75 2-6.75 8.75-11.25 1-0.5 11.25-6 8.5-4.25 8.5-14.75 0-28-72.25-28-60 0-60 27.5 0 8 6.5 12.75 1.75 1.25 12.75 6.5 8.25 4 11.125 10.375t4.875 25.125q1.75 15.25 4 61.25 2.25 45.5 2.25 83 0 40.25-6.25 55-2.5 5.75-6.75 8.75-2.25 1.5-9.5 5.25-17.5 8.5-17.5 22.25 0 14 16 22.75 9 4.75 30 7.75 23.5 3.5 39.5 3.5 31 0 44.5-5.25 6.25-2.25 10-6.5 3.5-3.5 11-17.75l52-95.75q9-16.5 11.75-19 4-3.5 9-3.5 9 0 18 17.5l35.25 68.75q7 14 8.5 17.25 12.25 25 24.25 33.5 15.5 10.75 55 10.75 71.25 0 71.25-32.25 0-7-4-13.25-1.5-2.75-10-9-11.75-8.75-14.5-25.25-5.75-34.75-5.75-83.5 0-64.5 6.25-112.5 1.5-13.25 7.25-19.25 1.5-1.75 13.25-9.5 9-6 9-16 0-17.5-23.25-24.75-12.25-4-25.5-5.25t-41.75-1.25q-52.25 0-71.25 9.75-13.5 7-13.5 18.75 0 7.75 6.75 14.5 1.5 1.75 11.75 10 8.75 7.25 9.75 27.5 1.5 27.5 1.5 43.75 0 19.25-1.5 25.5-2 7.25-8.25 7.25t-11.25-6.75q-7.5-9.5-21.75-41.5z" horiz-adv-x="445" />
<glyph unicode="&#x4e;" d="M144.25 396.5l124.5-109.25q17.75-15.5 25.75-15.5 3.25 0 6.25 3.25 6.25 6.5 6.25 23.25 0 35-4.75 47.75-3.25 8.5-14.75 14-10 4.75-13.25 9.75-4.5 6.5-4.5 14.25 0 20.75 28.75 27 12 2.5 42.75 2.5 36.25 0 50.75-4.5 23-7.25 23-26.75 0-16-19-24.25-9-4-12-7.75-9.5-13.25-10-68v-112.75q0.25-17.25 0.25-23.25 0-41.75-5.25-60.25-4-14.5-13-20.5-5.75-3.75-11.25-3.75-7.25 0-16.75 5-2.25 1.25-15.5 13.25l-148.25 132.75q-15.5 14-25.75 14-15 0-15-42.5 0-28.25 2.5-41.25 2.5-12.25 6.5-17.25 2.75-3.75 10.75-7.5 16.5-8.25 16.5-21.5 0-35-74.75-35-32 0-52.5 9.25-18.5 8.25-18.5 25 0 9 6 15.5 1.75 2 13.25 8.75 11.75 6.75 14.25 24.75 4.25 32 4.25 93.5 0 63.75-7.5 93.25-3.25 12.5-9 18-4 4-12 8-11 5.5-14.5 9.5-5.5 6.25-5.5 14.25 0 8.5 5.75 14.5 13.75 14.75 46.5 16.5 17.75 1 39 1 18.75 0 28.75-3.5 9-3 21-13.5z" horiz-adv-x="419" />
<glyph unicode="&#x4f;" d="M199.5 415.25q64 0 112-36.75 32.5-25.25 52.75-65.5 19.75-40 19.75-79.75 0-59.25-39-105.75-33-39.5-86.25-56.75-32.75-10.5-65.5-10.5-43.5 0-83 18-47.75 21.5-74.75 65.75-26.25 42.5-26.25 93.75 0 59.25 33.75 105 30 40.5 80.75 59.5 34.25 13 75.75 13zM174.25 343.5q-19.75 0-32-18.75-9.5-14-9.5-32.5 0-41.25 21.25-93.25 12.25-30.25 23.25-44.25 16.5-21.25 38.25-21.25 17.75 0 30 13.5 12.25 13.75 12.25 36.75 0 41.75-16 86.25-16.5 46-40.75 63.75-13.25 9.75-26.75 9.75z" horiz-adv-x="394" />
<glyph unicode="&#x50;" d="M45 184.75v131.5q-0.25 26.75-4 33t-18.5 10.5q-22.75 6.5-22.75 22.5 0 8.25 7 15 8.5 8.25 29.5 8.25 5.5 0 30.5-0.75h14.75q39.75 0.25 51.75 0.75 9 0.75 48 4.5 15 1.5 26.75 1.5 40.75 0 73-16.75 55.75-29 55.75-92.25 0-51-39.25-81.75-37-28.75-88.5-28.75-11.25 0-33 1.75-11.5 1-12.75 1-7.25 0-7.25-8v-2l1.75-41q0.75-13.25 5.25-19.25 3.5-4.5 15-10.75 16.25-8.75 16.25-19.25 0-16.75-23.5-24-27.25-8.75-68.5-8.75-92.5 0-92.5 31.5 0 7.25 5.25 12.75 3.5 3.5 17.5 10.75 10.5 5.25 11.75 20.5 0.5 7.25 0.75 47.5zM157.75 348v-85q0-9 3.25-11 6-4.25 19.25-4.25 16.75 0 28 9.25 16.25 13.5 16.25 44.75 0 32.5-19.25 47.25-12 9.25-29 9.25-18.5 0-18.5-10.25z" horiz-adv-x="342" />
<glyph unicode="&#x51;" d="M199.25 415.25q36 0 75.75-16 51.75-21 81.25-71.25 27.25-46.25 27.25-95.75 0-55.75-32.75-101-31.75-43.5-82.75-59.25-6.25-1.75-6.25-5 0-7.5 15-13.25 24.75-9.25 57.5-9.25 14 0 22.5 2.5 2.25 0.75 11.25 4.75 3.5 1.5 5.5 1.5 3.25 0 6.75-4.5 5.5-7 5.5-14.5 0-12.5-16-26.75-16.25-14.5-42.75-23.25-25-8.25-52.75-8.25-35.25 0-78.75 15.75-41.75 15-101 42.75-14 6.75-34 11.75-11.75 2.75-21.25 2.75-3.5 0-8.5-0.75-3-0.5-4.75-0.5-4.75 0-7.75 4.25-3.25 4-3.25 10.25 0 11.75 7.5 19.5 12 12 29.75 12l13-0.5q5.75 0 5.75 5 0 3.75-10.25 15.75-23.25 27-34.25 50.25-17 36-17 76 0 52.5 27.75 94 27 40.25 78.25 62.75 42 18.25 83.75 18.25zM173 342.75q-20.75 0-31.75-16-9-13.75-9-34.25 0-39 17-85.5 17-47.5 37.75-64.75 13.25-11 29.25-11 19.25 0 32.25 13.25 13.5 13.5 13.5 34.5 0 42-18.75 91.75-27 72-70.25 72z" horiz-adv-x="394" />
<glyph unicode="&#x52;" d="M169.25 210.75q-8.5 0-11-5.25-2.75-6-2.75-24.25 0-35.25 4-52.75 1.25-5.75 4.75-8.75 2-2.25 8.5-5.75 15-8.5 15-21.75 0-17.5-21.5-23.75-23-6.75-70.25-6.75-92.25 0-92.25 35 0 7 4.75 12 2 2.25 10.5 8 11.25 7.25 15 17.75 4.75 12.75 5.75 42.25 0.75 21 0.75 118.25 0 29-3.25 45.25-2.75 14.25-15.25 20.5-11.25 5.5-14.25 9.25-4.25 5.25-4.25 11.75 0 12 12.5 20.25 13.5 8.75 43.25 8.75 8.25 0 42-2.5 7.5-0.5 19.75-0.5 20.75 0 60 3 24 1.75 37 1.75 50 0 84.75-25.75 31.5-23.25 31.5-64.5 0-30-17.75-51.5-10.25-12.25-23.5-18.75-8-4-8-9.75 0-7 12.25-11.5 27-10 42.25-35 8.75-14.25 13.75-52.75 2.75-18.5 8.5-23.5 4.25-3.5 17.75-7.25 3.75-1 6.25-4 5-5.75 5-13.25 0-10.25-10-19.75-18.5-18-67.75-18-49.75 0-71 26-11.75 14.25-19 37.25-6.25 20.5-12.5 46.25-6 24-14.5 32.75-10.5 11.25-26.75 11.25zM155.75 338l-2.75-58.25v-1.75q0-8.75 2-11.75 2.5-3.75 11.25-3.75 20.25 0 30.25 9.5 11.75 11.25 11.75 38 0 48.75-34.25 48.75-9.5 0-13.5-4-4-4.25-4.75-16.75z" horiz-adv-x="394" />
<glyph unicode="&#x53;" d="M155.5 415.25q25.5 0 67.25-12.75 5.25-1.5 8.5-1.5 2.25 0 14.75 4.5 4.25 1.5 8.5 1.5 17.75 0 37.5-30.25 16.5-25.25 16.5-46.75 0-14.75-9.5-24.5-8.5-8.75-19.25-8.75-11 0-22 7.75-2.25 1.75-22 20-30 28-59 28-14 0-22-6.5-8.75-7-8.75-18.25 0-21.25 38.5-32.75 52.5-15.25 66.25-22 64-31 64-91.25 0-53.25-43.5-87-44.75-34.5-116-34.5-46.75 0-91 13.75-25 7.75-33 15.75-10.75 10.75-19.5 39.75-7 23-7 44 0 11.75 5 18 6.25 8 15.75 8t18.5-9.5q5-5.5 24.5-35.5 11.5-17.75 37.25-26.5 18-6 34-6 19.25 0 31.75 8 9.75 6.25 9.75 16.5 0 9.25-9 17.25-7.75 6.75-29.5 13.5-43.75 14-63.25 25.5-34.25 20-52 50-13.75 23.25-13.75 48.5 0 31.5 20 58.75 19.5 26.25 54 41.5 32 13.75 67.75 13.75z" horiz-adv-x="323" />
<glyph unicode="&#x54;" d="M119 408.25h131.75q21.25 0.75 38.75 5.75 7.75 2 13.75 2 20.75 0 41.5-34.75 16.5-27.75 16.5-57.25 0-21.5-13.25-31.25-10.25-7.75-24-7.75-14 0-24.5 8.5-8.75 7-17.75 23.25-9.5 17.5-14.5 21.5-4.5 3.5-10 3.5-9 0-12.75-6.5-4.5-7.75-4.5-26.75v-140q0-21.25 5-32.25 3.5-8.25 16.5-14 13.75-5.75 17.5-10 5.75-6.5 5.75-15.5 0-35-99-35-79.75 0-103.5 15.75-13.75 9-13.75 22.25 0 6 3.5 10.5 4 5.5 10.25 7.25l13 4q10 3 13.75 12 4.75 11.75 7.75 68.25 3 60.5 3 94.5 0 31-5.25 40.25-3.25 5.5-9.75 5.5-9.75 0-19-14-17-25.75-27.75-33.75-12.75-9.75-25-9.75-13.75 0-23 11.25-7.75 9.5-7.75 24.75 0 16.5 8 36.5 13.25 33 33.25 48.5 11.25 9 22 9 5 0 11.5-1.5 15-3 22.5-3.5 17.25-1.25 19.5-1.25z" horiz-adv-x="364" />
<glyph unicode="&#x55;" d="M373.25 283.25v-61q0-55.25-8.25-78.25-17.75-48.5-78-70.5-36.75-13.5-82.5-13.5-80.25 0-128.5 38.5-26.75 21-35 51-6.5 23.25-6.5 60 0 23.5 1.25 64.25 0.75 26.5 0.75 40.25 0 22-5 31.75-2.25 4.5-11.75 10.5-16.5 10.75-16.5 24.5 0 16 21 24.5 20.5 8.25 74.75 8.25 40.5 0 68-6.25 14.75-3.25 22.5-13 4.5-5.75 4.5-14.25 0-10.5-8-17-1.5-1.5-15-7.5-7.75-3.75-10.75-13.5-2.75-7.25-2.75-29.5 0-24-0.5-35.5-1.5-56.5-1.5-62.5 0-40.75 23.25-62.25 20-18.5 51.25-18.5 29.75 0 49.25 14.75 16.75 12.75 21.5 35.75 2.25 11 2.25 31.75v55q-1.25 58.25-3.25 72-1.75 9.25-7 13.75-1.75 2.25-9.5 5.75-12.5 5.5-16.5 9.25-6 5.75-6 13.5 0 12.75 15.5 20.25 16.25 8 60.25 8 37.5 0 56.25-7.25 16.75-6.5 16.75-21.5 0-7.75-5.75-13-2-1.75-13-8-13.5-7.75-15.75-19.5-1.25-9-1.75-61z" horiz-adv-x="414" />
<glyph unicode="&#x56;" d="M357.75 330.75l-114.75-232.25q-11.5-23.75-22.25-31-9.5-6.75-22-6.75-11.75 0-21.25 5-7.5 4.25-12.25 10.75-3.25 4.25-9.5 18.25l-102.25 225.25q-12.75 27.5-23 31.75-3.75 1.75-12 3.25-15 2.75-15 18.75 0 14.25 16.25 24.75 23.5 15 85.25 15 46.5 0 74.75-7.5 24.25-6.25 24.25-24.5 0-10-13.25-19.25-10-7-10-12.5 0-5.25 4.75-16l31.25-70.5q7-15.75 15.5-15.75 11.25 0 20.25 17 6.5 12 31.25 66.25 7 15.75 7 21 0 8.5-12 14.5-13.25 6.75-13.25 17.75 0 29.5 80 29.5 35.5 0 53.75-5.5 18.75-5.75 18.75-22.5 0-19-21.75-21.5-15-1.75-19.5-5-8-6-19-28.25z" horiz-adv-x="422" />
<glyph unicode="&#x57;" d="M235.75 319.5l-7.25 17.5q-6.75 15.25-16.75 20.25-18 9.5-18 24.5 0 31.75 96.5 31.75 47.25 0 72.5-8 9-2.75 14.75-10.25 4-5 4-11.75 0-6-2.375-9.375t-13.125-12.625q-6.25-5.5-6.25-11 0-9 9.5-29.25l14.25-30.5q10.75-22.75 13.75-26.25 4.75-5.75 9.5-5.75 4 0 7.25 3.25 5.25 5.75 13.25 28.75l12 35q5.25 15.75 5.25 22.5 0 10-10.5 13.25-21.25 6.75-21.25 24 0 6.5 4.125 12.5t10.375 8.5q16.25 7 56 7 23.5 0 37-5.5 9.75-3.75 15.5-12.25 3.5-5.25 3.5-11.75 0-7.75-5.25-15-2.5-3.5-12-11.5-5.5-4.75-7-6.75-5.25-7.5-14.5-32.25l-43.75-116.25q-36-89.75-39.5-97.25-14.75-33.25-26-40-6.5-3.75-18-3.75-14 0-23.5 6t-16.25 22.25l-49.5 117.5q-4.5 10.75-6 12.5-2.5 2.5-5.5 2.5-5 0-9.25-6.5-2.75-4.25-14-32.25l-34-84.5q-10-24.25-18.25-30.5-9.75-7.25-26-7.25-15 0-25 7.75-8.75 6.75-16.5 26.25l-92 235.25q-6 15.25-9.25 18.75-2 1.75-12 7-12.75 6.75-12.75 22.5 0 35 87.25 35 59.25 0 73.75-11 10.5-7.75 10.5-20 0-5.75-1.125-8.375t-7.125-11.875q-3-4.75-3-11 0-13.25 16.75-52.75l10.25-24q7.25-16.75 10-19.25 1.75-2 4.75-2 9.75 0 20 27.75l10.25 28.5q1.25 3 1.25 4.75 0 2-1.25 5.25z" horiz-adv-x="543" />
<glyph unicode="&#x58;" d="M263.25 267l95.5-119.75q11-13.75 15.5-16 2-1.75 11.25-4.75 15.25-5 19.75-10.75 5.25-6.75 5.25-14.75 0-12.25-11-21.75-12.25-11-44.5-14.75-23.5-2.75-65.5-2.75-61 0-78.75 10.25-13.5 7.75-13.5 19.25 0 11 10 17.75 8.25 5.75 9.25 7.5 0.75 1.75 0.75 3.5 0 12.5-29 51-3.75 4.75-6.5 4.75-3.25 0-15.25-16.25-20.75-28-20.75-35.25 0-2.5 1.75-5 0.75-1 8.75-7.25 9.75-7.5 9.75-19 0-17.25-19.5-23.25-25.5-8-60.75-8-40.25 0-61.5 6.75-8.5 2.5-15 10.5-5.75 7-5.75 15.5 0 11 9 18.5 6.5 5 19.5 5.5 12 0.25 16.5 2.5 13 5.25 51.5 52.75l38.75 48.5q3.5 4.5 3.5 6.25 0 1.25-3.5 5.5l-64 81.75q-14 18.25-18.75 22.75-6 5.25-16.25 8.5-15 4.75-19.5 9-8.5 7.75-8.5 19 0 17.25 23.5 26.25 31.75 12.25 96.75 12.25 49.75 0 67.5-6.5 8-3 13.25-11 4-6 4-13.5 0-12.25-9.25-19-6.5-4.5-7-5.5-1-1.75-1-3.5 0-8.5 15.25-24.5 5.5-5.5 7.75-5.5 3 0 11.75 10.25 13.5 15.5 13.5 20.5 0 2.5-2 4.75-0.5 0.75-9.25 7.25-7.5 5.5-7.5 16.25 0 16.75 18 22.75 22.25 7.25 65.25 7.25 46 0 60.5-10.75 11-8 11-20 0-13.25-10.25-19.25-4.75-3-24.5-4.5-13.25-1.25-23.5-9.25-17-13.75-32.75-34l-29.5-37q-3.25-4.25-3.25-6.25 0-1.5 3.25-5.5z" horiz-adv-x="414" />
<glyph unicode="&#x59;" d="M114 413.5q69 0 86.75-10 13.25-7.5 13.25-19 0-6.75-5.5-13.5-8.25-10.25-8.25-14.75 0-9 14.25-28.75 9.5-12.75 17.75-12.75 9 0 23 17.75 10 12.5 10 19.5 0 6.25-3.25 10.25l-6 7.25q-5 6-5 15.75 0 13.5 15.75 20.25 19.25 8 61.75 8 49.75 0 60.75-6.5 13.5-8.25 13.5-22.25 0-11.25-9.25-17.5-4.75-3.25-18.75-6-16.75-3-28.75-14-39.5-36.5-68.5-75-9.5-12.75-13-26-3.75-14-3.75-37.25 0-31.75 2.25-56.5 1.25-16 5.5-22.25 3.25-5.25 13.75-10.75 18.25-9.5 18.25-24 0-33.75-100.5-33.75-34.75 0-64.75 5.25-30.25 5.5-37.75 13.75-6.25 6.75-6.25 15.5 0 16 19 22.5 14 5 17.75 12.75 7.75 17.5 7.75 82.5 0 22-5.25 33.75-7.5 16.25-37.25 51.5-26.25 30.75-43.5 46-9 7.75-18.75 11.5-17 6.25-20.5 9.25-7 6-7 16 0 13.5 16 21 22 10.5 94.5 10.5z" horiz-adv-x="407" />
<glyph unicode="&#x5a;" d="M313.75 368.75l-110.5-190.5q-18.75-32.5-18.75-39.25 0-11.25 33.75-11.25 13.25 0 26.875 2.875t19.875 6.875q12 8 25.25 36 6 12.75 11 15.75 4.5 3 11 3 35.5 0 35.5-39 0-40.25-21-70-14.75-20.75-27.5-20.75-4 0-10.5 1.25-18.25 3.25-34.5 3.25h-217.25q-17 0-19 0.75-9.75 4.25-9.75 17.25 0 7.5 7.25 20l128.75 218.25q5.75 9.75 5.75 14t-3.75 7.5q-7.5 6.25-24.5 6.25-24.75 0-36.5-8.75-10-7.5-23.75-35.5-10.5-21.75-24-21.75-13.75 0-24.5 13-9.5 11.75-9.5 27.5 0 25.5 21.25 61.25 15 25 24.25 25 2.25 0 6.5-1.5 14.75-5.25 65.75-5.25 24.25 0 105.75 4.75 70.5 4.25 71.75 4.25 12.25 0 18.25-7.25 5.75-7 5.75-15.5 0-6.75-9-22.5z" horiz-adv-x="350" />
<glyph unicode="&#x5b;" d="M113.5 329.5v-188.5q0-26.75 7.5-32 6.25-4 23.75-4 6.5 0 19 1.5 7 0.75 12.25 0.75 11.75 0 18.75-6.5 4.25-4 4.25-10.75 0-8.75-7-16-7.25-7.5-26.5-9.75-23-2.5-60.25-2.5-56.25 0-67.5 7.25-17.75 11.25-17.75 72v191.75q0 61 16.5 72.75 11.25 8 65.5 8 68.5 0 82.75-7.5 13.25-7 13.25-19.75 0-6.25-3.25-9.75-7.25-8-22-8-4.75 0-17.25 1-8.75 0.75-16 0.75-16.75 0-21.75-6-4.25-5.25-4.25-34.75z" horiz-adv-x="203" />
<glyph unicode="&#x5c;" d="M102 171.25l-49 112.75q-10.25 23.5-43.25 89.5-6.25 12.25-6.25 21 0 7.75 7.25 12 12 7 33.75 7 11.25 0 16.25-3.75 5.75-4.5 11-19.25 3.75-11.25 11.5-29.5 10.25-24.25 23.25-57l49-113.75q10.75-25 23.25-48.75 16.25-30.75 21.75-42.25 4.5-9 4.5-16.75 0-6.5-5.25-10.75-13-10-34.5-10-14.75 0-23.25 13.75-3.5 5.75-15.25 37-6.5 17-24.75 58.75z" horiz-adv-x="209" />
<glyph unicode="&#x5d;" d="M89 145.75v188.5q0 27-7.5 32-6.25 4-23.75 4-6.5 0-19-1.5-7-0.75-12.25-0.75-12 0-18.75 6.5-4.25 4-4.25 10.75 0 8.75 7 16 7.25 7.5 26.5 9.5 23 2.75 60.25 2.75 56.25 0 67.5-7.25 17.75-11.25 17.75-72v-191.75q0-61-16.5-72.75-11.25-8-65.5-8-68.25 0-82.75 7.5-13.25 6.75-13.25 19.75 0 6.25 3.25 9.75 7.25 8 22 8 4.5 0 17.25-1 8.5-0.75 16-0.75 16.75 0 21.75 6 4.25 5.25 4.25 34.75z" horiz-adv-x="203" />
<glyph unicode="&#x5e;" d="M96.75 234.75h-97l66.5 176.5h123.5l66.5-176.5h-96.75l-31.25 101.25z" />
<glyph unicode="&#x5f;" d="M0 45.25h256v-64.25h-256v64.25z" />
<glyph unicode="&#x60;" d="M99.25 424.5q24.75 0 35.5-7.5 4.75-3.25 4.75-7.25 0-2-2.75-6.75-1.25-2.5-1.25-4.5 0-3.5 4-7.75 1-1 12.25-9.25 8.5-6.5 9.25-7 8.5-6.75 8.5-16 0-18.5-26.75-18.5-44.5 0-82.5 29.25-21.25 16.25-21.25 28.5 0 9 12.75 16.75 16.25 10 47.5 10z" />
<glyph unicode="&#x61;" d="M151.5 316.25q43.25 0 73.5-22 18-13 24.25-31.5 4.5-13.75 4.5-34.75 0-4-0.5-28.5v-10.5q0-27 3-42.5 2.25-12 9-16 1.75-1 9.25-2.25 8-1.25 8-10 0-17-17-34-24.5-24.25-56.75-24.25-26 0-41.5 18.5-5.25 6.5-9.75 6.5-4.75 0-13.25-6.25-25-18.75-56.75-18.75-32.75 0-53 14-12 8.5-19.75 22-9 15.75-9 33.5 0 25.75 21 46 33 31.5 98 31.75 14.5 0 17.5 2.25 4.5 3 4.5 13.75 0 23.25-3.25 32.5-6.25 18-20.25 18-6.5 0-12.5-3.75-5.75-3.5-15.5-17.25-22.5-31.75-46.5-31.75-13.25 0-20.25 7.75-7.5 8-7.5 18.25 0 16.5 17 32 18 16.25 52.5 27.25 31.25 10 61 10zM134.25 171.5q-10.75 0-19-9.25-8.25-8.75-8.25-21.5 0-12.5 7-20.5 5.25-6.25 14.25-6.25 20 0 20 34 0 15-3.25 19.5-3.25 4-10.75 4z" horiz-adv-x="286" />
<glyph unicode="&#x62;" d="M131.25 393.25l-3.25-97.5v-5q0-5.25 3.25-5.25 1.75 0 10 6.75 29.25 23.75 64.25 23.75 35.25 0 62-25.25 33.5-31.75 33.5-82.75 0-72.75-54.25-116.5-39.25-31.5-91.5-31.5-32 0-60.5 11.75-13.5 5.5-32 17.75-3.75 2.25-6 2.25-2.75 0-15.5-4.75-6.5-2.5-15.5-2.5-15.25 0-15.25 10.25 0 3 1.25 7.25 5.25 16.25 6.25 32.25 1 18 2.25 84v69q0 23-1.5 30.25-2 8.25-11.75 12.25-12.5 5.25-16.25 9.25-6.75 6.75-6.75 15.25 0 16.5 35.75 32.75 19.5 8.75 53 15.75 26.75 5.5 45.5 5.5 6.75 0 9.75-2.75 1-1.25 2.25-5 1-3.75 1-5.25v-2zM152 241q-7.25 0-14.5-5-9-6.5-9-30.5 0-74.5 5.75-87.5 5.75-13.5 19.5-13.5 17.5 0 27 14.25 10.25 15.5 10.25 46.25 0 43.75-16 64-9.5 12-23 12z" horiz-adv-x="310" />
<glyph unicode="&#x63;" d="M151.25 316.25q44.5 0 78.75-22.25 32.25-21.25 32.25-53 0-21.5-15-35.25-14.25-12.75-33.75-12.75-20.5 0-31 15-3.25 4.75-9.5 24.25-7 21.25-25.75 21.25-15.75 0-25.25-15.25-7.25-11.75-7.25-26 0-30.5 21.5-53.75 17.5-19 43.75-19 13.25 0 27.5 4 3.25 0.75 16 7 3.75 1.75 7.75 1.75 9.25 0 15.25-8 6.25-8.5 6.25-18.75 0-14.75-15.5-30.75-17.75-18.5-47-27.75-21.75-7-48-7-51.25 0-87.75 30-46.5 38.25-46.5 97 0 56.5 43.25 93.75 41.25 35.5 100 35.5z" horiz-adv-x="266" />
<glyph unicode="&#x64;" d="M301.5 388.25v-228.25q0-20.25 1.75-25.25 2-5.5 9-10.5 9.5-7 12-11.25 3.25-5.5 3.25-11.25 0-20.25-40.25-30.75-19-4.75-47.75-7.75-15-1.5-24.5-1.5-9.25 0-12 4.25-1 1.75-1.75 9.5-1.25 13-9 13-4.25 0-13.25-7.5-25.5-21-57-21-38.5 0-69.5 29-18.25 17-29.5 39.5-15 29.5-15 59.5 0 35.25 19.5 68 18 30.25 49 46.25 26 13.75 51.25 13.75 28.75 0 52-12.75 3.75-2.25 6.25-2.25 7.75 0 7.75 21 0 11.5-6.75 17-4 3.25-13.25 6-15.75 5-15.75 17.25 0 18.75 36.25 28.75 64.25 17.75 85.75 17.75t21.5-20.5zM165 262.75q-6.75 0-13.875-4.875t-11.125-12.375q-12.75-23-12.75-60.25 0-34.25 12.25-51.75 8.75-12.5 23.75-12.5 14.5 0 22.5 15.5 8.5 16.25 8.5 62.75 0 40-8.75 53-7.25 10.5-20.5 10.5z" horiz-adv-x="331" />
<glyph unicode="&#x65;" d="M240.25 179h-117.5q-7.75 0-7.75-6.25 0-12.75 11.5-25.5 18.25-20.25 43.25-20.25 15.5 0 32.5 6.25 11.25 4.5 19 9.75 8.75 6.25 13.25 6.25 6.75 0 12.75-8 6.5-8.5 6.5-16.75 0-17.75-22.5-34.75-39.75-29.75-91.75-29.75-52.25 0-88 30.5-17.25 15-28.5 36.25-14.75 28.5-14.75 59.75 0 60.75 49.5 99.75 37.5 29.75 87.25 29.75 47.5 0 80.75-27 16.75-13.25 27-32 11.75-21 11.75-41.5 0-16-8-28.25-5.75-8.25-16.25-8.25zM129.25 225.75h25.25q16 0 16 14.5 0 14-8 22.5-7.75 8.25-20 8.25-14 0-22-11-7.5-10.5-7.5-20.75 0-6.25 3.75-10.5 2.75-3 12.5-3z" horiz-adv-x="273" />
<glyph unicode="&#x66;" d="M157 269.5h31q10.25 0 13.25-5.25 0.5-3 0.75-5l-2-29.75q-0.5-8.5-2.5-10.75-2.75-3.25-11.25-3.25-2.75 0-7.25 0.75-4 0.75-6.25 0.75-11 0-15-6.5-4.5-7-4.5-29 0-22.5 6-42.25 2.5-9 8.25-13 3.5-2.25 12.25-5 22.25-6.5 22.25-24.25 0-10.75-11.25-20-19.5-15.5-97.25-15.5-88.5 0-88.5 34.5 0 9.25 6.75 15.5 2 1.75 13 6.75 13.75 6 16.25 22.25 4.5 29.5 4.5 53 0 11-4.75 17-3.5 4.5-15 4.75-16 0-18 1-4.25 2.25-4 4.75l0.25 2 2 31.5q0.5 8.75 4 10.5 2 1 10.25 1.5 9.5 0.5 9.5 9 0 3.25-6.75 16-11.5 21-11.5 41.75 0 30 21 49.5 30.75 28.25 88.25 28.25 47.25 0 75.5-22.25 21.75-17.25 21.75-39.75 0-18-13.25-29.75-10-8.75-24.25-8.75-18 0-34.25 12.75-4.25 3.25-19.25 19.5-10.75 11.75-21.25 11.75-8.5 0-13-6.5-4-5.5-4-11 0-19.5 37.25-42.25 14.25-8.75 18.5-14.25 2.25-2.75 4.5-8 1.75-3 8-3z" horiz-adv-x="205" />
<glyph unicode="&#x67;" d="M274.25 329.5q5.75 0 11-7.5 4.75-6.5 4.75-16.25 0-10.75-6.25-23-7.25-13.75-15.5-21-5.75-5.25-5.75-7.75v-1.5q1.25-9.75 1.25-14.75 0-29-20-49.5-18.25-18.5-46.75-28-29.5-10-61.25-10-9.5 0-17 1-6.5 0.75-10.25 0.75-13 0-13-13.75 0-6 5.5-10.5 8.75-7.25 24.5-7.25 12.25 0 31.5 2.75 40.5 5.75 61.75 5.75 28 0 44.5-9.75 14.75-8.5 22.5-24.75 5.75-12 5.75-24.75 0-25.75-18.5-49.5-21.75-27.75-64.75-41.25-33.75-10.75-77.5-10.75-55.25 0-90 17-17.75 9-28.25 25.25-6.75 10.25-6.75 23 0 10.75 6.5 19.25 5.25 7 12.75 10.25t7.5 6.25q0 2.75-6.25 8.25-20.25 17-20.25 34.75 0 16.25 15.5 31.25 9 8.75 18 13.25 6 3.25 6 6 0 3.5-7.5 10.5-25.75 23.75-25.75 55.5 0 23 17 42.5 17.25 19.75 51.25 31.75 28.25 10 55.25 10 18.75 0 60.25-8 7-1.5 14.75-1.5 16 0 32.5 7.25 8.25 3.5 21.75 14.25 6 4.5 9.25 4.5zM137.75 277.75q-10.25 0-18-8-9.25-9.5-9.25-26.5 0-21 6.5-39.5 7-20.25 23.75-20.25 13.75 0 21.25 9.75 7.5 10 7.5 27.25 0 25.25-8 42-7 15.25-23.75 15.25zM84 50.5q-6.25 0-6.25-7.25 0-11.25 9.75-19.75 15.75-13.5 47.5-13.5 20 0 34.75 4.75 17.75 6 17.75 20 0 7.25-6.25 11.25-5.75 3.75-12 3.75-3.75 0-11.5-1.25-14-2-31.25-2z" horiz-adv-x="293" />
<glyph unicode="&#x68;" d="M147 396l-3.25-104.75q-0.25-5.75 1.5-10.75 2.75-8 10-8 6.25 0 11.75 8.25 24.5 35.25 64.75 35.25 39.5 0 63.25-24.25 11.75-12 15.25-26.75 4-16.25 4.5-41l2.25-90.25q0.5-14 5.5-21.25 2.25-2.75 10.75-9.75 7.5-6 7.5-14.25 0-26.75-82-26.75-72 0-72 24.75 0 6.25 3.5 10.75l6.5 8.5q10.5 13.75 10.5 68.5 0 33.5-6.25 48.75-8.25 21-29.5 21-15.25 0-22.5-11-5.25-8.25-5.25-30.25v-48.25q1.5-28.75 2.5-34 1.75-7 12-18 4.75-5.25 4.75-12 0-28.75-73.75-28.75-85.75 0-85.75 29.25 0 7.25 5.25 13.25 1.25 1.25 11.25 8.5 10.5 7.25 13.25 35.25 3.5 34.5 3.5 100.5 0 52-3 73.25-1.25 9-5 13.25-2 2-8.75 5.5-15.5 8-15.5 19.25 0 17.75 32 28.75 32.25 11 65 16.5 20.5 3.5 32 3.5 14 0 13.5-12.5z" horiz-adv-x="344" />
<glyph unicode="&#x69;" d="M146 298.75v-145.25q0-17.75 3-25.25 3-7.75 12.75-15 13-9.25 13-19 0-32.5-82.25-32.5-43.5 0-69.25 7-9.5 2.5-15.25 10-4.5 5.5-4.5 13t5.25 13.5q1.5 1.75 11.75 9 5.5 4.25 7.625 8.5t4.125 14.5q2.5 15 2.5 30.75 0 20.5-1.75 51.5-1 13.5-4.5 18.25-2.75 3.75-10.5 7.25-15.75 7-15.75 20 0 16 20.25 23.75 22.25 8.5 52.5 16.25 36 9.5 57.5 9.5 13.5 0 13.5-15.75zM96.25 408.25q21 0 34.75-8.25 12.5-7.5 12.5-21.5 0-19.5-19.25-30.75-30.75-17.75-74.75-17.75-16.75 0-28 7-14.5 9-14.5 25.5 0 16.25 20 28 12 7.25 32.5 12.5 20.25 5.25 36.75 5.25z" horiz-adv-x="178" />
<glyph unicode="&#x6a;" d="M151 294.5v-221.5q0-45.25-9.75-64-10.75-21-41.75-32.25-23.5-8.75-48-8.75-24.75 0-42.5 10.5-15 8.75-15 23.5 0 6.75 5 11.5 4.75 4.5 10.75 4.5 0.75 0 8-0.75l6.25-0.75q5.5 0 9 5 3 4.25 3 8.75 0 2.5-0.75 7-1.75 9.25-1.75 17.25v158.75q0 13.5-5.5 20-3.5 4.25-11.5 7.5-14.5 5.75-14.5 17.25 0 14.25 15 25.5 19.75 15 76.75 25.5 29.25 5.5 41.75 5.5 7 0 11-3.5 4.5-4.25 4.5-16.5zM98 408.25q21 0 34.75-8.25 12.5-7.5 12.5-21.5 0-19.5-19.25-30.75-30.75-17.75-74.75-17.75-16.75 0-28 7-14.5 9-14.5 25.5 0 16.25 20 28 12 7.25 32.5 12.5 20.25 5.25 36.75 5.25z" horiz-adv-x="173" />
<glyph unicode="&#x6b;" d="M148 396l-2.25-78.25q-0.5-16.5-0.5-34.5 0-24.75 0.75-29.75 1.75-10.25 10.5-10.25 5.5 0 19.5 8 19.25 10.75 19.25 15.75 0 3-5.75 10.5-4 5.25-4 10 0 8.75 9 15.75 15 11.25 58 11.25 23 0 43.75-4.25 29-6 29-27.25 0-6.75-4.25-11-4.5-4.5-21-7.75-6.75-1.25-25-12-20.75-12-20.75-16.5 0-10 47.5-70.25 21.75-27.5 32-36.5 5.5-4.75 17.5-11.25 18-10 18-22.5 0-12.25-11.25-20.5-10.5-7.75-31.5-7.75h-80.75q-15.5 0.25-24 11.25l-41.5 53.25q-16.75 21.5-19 23.75-4.75 5.25-7.25 5.25-4.75 0-4.75-23 0-9 3.25-16 1.75-4 10.75-11.25 6.5-5.25 6.5-15.5 0-11.25-9.75-20.25-14.25-12.75-65.75-12.75-53.5 0-69 4.5-8.5 2.25-15 10.5-5.5 7-5.5 16 0 9.25 10.5 16 9.25 5.75 11.625 8.75t3.875 9.5q5.75 35.75 5.5 108v54.75q0 31.5-4.75 39-3.25 4.5-12.25 6-20.75 3-20.75 17.25 0 15.75 29 28 16.5 7.25 44.25 15.75 40.75 12.5 63 12.5 6.25 0 10-3.75 3.25-3.25 3.25-7.25v-1.25z" horiz-adv-x="371" />
<glyph unicode="&#x6c;" d="M145.25 265.25v-80.25q0-50 1.25-60 2-11 12.75-15.5 9.75-4.25 12.25-7.5 3.25-4.5 3.25-10.5 0-13-14.5-21.25-15-8.5-68.5-8.5-47.25 0-67 7.25-7.75 3-14 9.25-6.5 7-6.5 15.5 0 7 6.25 11.75 1.5 1.25 10.5 5 9.75 4.25 12 23.25 4 32.75 4 96.75 0 54.25-2.75 69.5-2.75 16.25-8.75 23.25-3 3.75-9.5 7.75-10.25 6-13.25 10-5 6.5-5 14.25 0 12.25 12.75 22.5 19.25 15.25 80 25.75 29.25 5 41.25 5 19.75 0 19.75-23.75 0-9.25-2.5-37.75-2.75-40.75-3.75-81.75z" horiz-adv-x="178" />
<glyph unicode="&#x6d;" d="M128.75 314.5q14.75 0 14.75-18.75v-6q-0.25-4.25-0.25-6.5 0-13.5 8-13.5 4 0 13.25 10.75 10.25 11.75 25.5 20.5 23.25 13.5 50.5 13.5 41 0 58-30.75 6.5-11.25 10-11.25 3 0 7.5 4.5 37.5 37.5 79.25 37.5 32.5 0 53-17.75 21.5-18.75 21.5-55.25 0-8.25-0.75-27.25-0.25-3-0.25-40 0-19.5-0.25-28.75-0.25-5.25-0.25-8.25 0-15.5 10-27.25 5.75-6.75 6.75-8.25 2.25-3.5 2.25-8.5 0-13.5-16-22.25-17.5-9.25-59.75-9.25-25 0-47.5 6.25-26.25 7.25-26.25 23.25 0 4 2.5 9.25 0.75 1.25 8.5 12 7.75 10.5 7.75 68.75 0 32.75-4.75 46.5-2.25 6.25-8 11-6 4.75-14.25 4.75-10.75 0-18.25-9-6-7.5-6.75-27.25 0-2.25-0.25-29.75 0.75-43 4.25-57.25 1.75-5.75 10.75-19 2.75-4 2.75-9.75 0-29.75-78.5-29.75-45.25 0-62.25 7-13 5.5-13 20.25 0 5.25 2.75 9.75 0.5 1 10 9.75 6 5.75 7.75 11.25 1.75 6 2.25 26.25l1.25 49.75q0 44.25-25.5 44.25-14.75 0-20.25-14.5-4.75-13.25-4.75-59.75 0-28.25 1-39 0.75-8 6.5-18 6.25-11 6.25-18.25 0-12.75-15.75-19.25-22.25-9.5-62-9.5-54.5 0-69.25 13.25-5.25 4.75-5.25 12.75 0 3.5 2 7.75 1.5 2.75 11.25 11.5 11.5 10.25 13.25 28.25 2.75 31.5 2.75 65 0 23-2.75 34-2.25 8-9.5 13.5-7 5.25-9 7.5-3 3.5-3 9.5 0 17 26.5 26.5 64.5 23.25 94 23.25z" horiz-adv-x="491" />
<glyph unicode="&#x6e;" d="M309 223.75l3.5-88q0.5-10.25 4.75-17.75 1.75-2.75 13.75-15.25 3.75-4.25 3.75-11 0-11.5-8.25-17.5-11.5-8.5-40.75-11-18-1.5-41.75-1.5-33.75 0-48.5 6-14.75 6.25-14.75 20.75 0 4.75 2.5 8.75 0.5 0.75 9 9.75 10.25 10.75 10.25 73 0 20.75-4.75 39-6 22.5-27.5 22.5-17.5 0-24-12.75-5-10-5-37v-49.5q0.25-18.25 4.25-26.25 1.75-3 9.75-15.25 3-4.5 3-10 0-14.5-18.5-21.5-19.5-7.5-66.25-7.5-69.25 0-69.25 29 0 5.25 2.75 9.5 1.25 2.25 9.75 8.25 7.25 5.25 9 14 4.25 21 4.25 86.5 0 15-2.25 21.25-2.5 6.75-7.5 9.75l-8.25 5.25q-10.75 6.5-10.75 16.5 0 14.75 22 23.75 29 11.75 45.75 16.5 45.75 12.5 53.75 12.5 6.5 0 12-5 5.75-5 5.75-13.25 0-2-0.25-6.75-0.25-2.25-0.25-3.75 0-11.75 10-11.75 6 0 12.75 9.5 10.5 15 22.5 21.5 17 9.5 39.75 9.5 32 0 54.25-16.5 19-14.25 24.5-34.25 4-14.75 5.25-40z" horiz-adv-x="338" />
<glyph unicode="&#x6f;" d="M164.25 316.25q45.75 0 80-23.75 24.75-17 39.75-44.25 15.5-28.5 15.5-59.75 0-54.25-49.75-92.25-47.5-36.25-108.75-36.25-59.5 0-96.75 34-36 33-36 86 0 59.25 44 96.75 46 39.5 112 39.5zM143.25 258.5q-12.75 0-19.25-11.25-4.25-7.5-4.25-18 0-24.5 11.5-64.75 8-28.5 16-36.5 6.75-6.75 16.5-6.75 8.5 0 14.75 5.25 7.75 6.5 7.75 21.75 0 29.25-8.5 62.25-8.75 33.5-20.5 43-6 5-14 5z" horiz-adv-x="308" />
<glyph unicode="&#x70;" d="M131.75 314.75q16.75 0 20-4.5 1.5-2.25 1.5-11.25 0.25-9.25 5.75-9.25 2.75 0 17 9.5 8 5.25 21.5 10.25 19.25 6.75 36.75 6.75 31 0 56-22 19-16.75 29.5-42.25 11-26.75 11-56.25 0-41.5-20.5-76-20.75-35-54.75-50.5-20-9-41.25-9-21 0-44 10-4.5 2-7.5 2-7.25 0-7.25-14.5 0-17.5 9-25.75 2-1.75 16.25-11.5 5-3.5 5-12.25 0-15.75-18-24-17-7.5-46.5-7.5-53.75 0-94.75 21.75-20.75 11-20.75 27.5 0 7.75 4.5 13 2 2.25 10.75 6.25 11.5 5 14.75 16.75 4 15.5 4.75 41.25l1 54.25q-1.5 48.25-2 55.75-1.25 14.5-5.75 16.75-2 0.75-12 2.5-10.25 1.75-15 10-3.25 5.25-3.25 11.5 0 13.5 13 22.75 14.5 10.25 50.75 23.75 39 14.25 64.5 14.25zM155.25 220.25l-3.75-68.75q-0.25-4.25-0.25-8.25 0-6.5 3.75-10.25 7.25-7 20.75-7 34.75 0 34.75 57 0 36.75-14.5 51.75-9 9.25-21.75 9.25-17.5 0-19-23.75z" horiz-adv-x="339" />
<glyph unicode="&#x71;" d="M154.75 316q16 0 32.75-2.5 4.75-0.75 33-7.25 8-2 15.5-2 9 0 26.5 6.25 15.5 5.5 25.25 5.5 21.75 0 21.75-17.75 0-9.25-1.75-22.25-4.75-33-7-109.25-1.25-36.25-1.25-50.75 0-50.25 2.75-70.5 1.75-11.25 5.75-16.25 1.5-1.75 7.75-6.5 10.5-8 10.5-19.75 0-32-66.5-32-39 0-68 8.75-40.5 12-40.5 34.5 0 5.25 3 9.5 3 4 16.75 10.75 14.75 7.25 14.75 29.5 0 12.75-6.75 12.75-3.25 0-20.5-8.5-16.5-8-40.75-8-48.75 0-78.25 35.5-31.5 37.75-31.5 92 0 59.25 40.5 93.75t106.25 34.5zM161.5 261.25q-10.5 0-19.75-12-12-15.5-12-47.25 0-38.25 13.25-60.5 10.75-18.25 25.5-18.25 12.5 0 17 12.5 4.5 12.25 4.5 50.75 0 38-3.5 51.5-5.75 23.25-25 23.25z" horiz-adv-x="325" />
<glyph unicode="&#x72;" d="M125.5 314.5q13 0 16.25-5.25 2-3 4.25-22.5 1.25-11 7.5-11 5.25 0 9.75 7.25 19.75 31.5 52.25 31.5 22.75 0 37.25-15 6.75-6.75 11-17.75 5-11.75 5-22.5 0-15.75-9.5-31.75-16.5-28.25-49.5-28.25-15 0-27.25 8-5.5 3.75-16.75 14.75-5.25 5.25-10 5.25-6.5 0-8.75-8-2.25-6.75-2.25-35.25 0-43.75 4.25-54.25 2-4.5 4.5-6.5 2.25-2 12.25-5 22.5-6.5 22.5-23.75t-18.75-25.25q-17.5-7.5-78.25-7.5-60.25 0-77.75 13.25-10.25 7.75-10.25 18.5 0 13.25 15.25 23.5 12 8 13.75 19.25 4 23.25 4 84.25 0 10.75-2.75 16.75-2 4.5-9.75 7.5-17.75 6.75-17.75 20.25 0 13.75 17.25 23.75 24 14 71.25 22.25 20 3.5 31 3.5z" horiz-adv-x="273" />
<glyph unicode="&#x73;" d="M102.25 316.25q13.5 0 41.25-5.75 5.75-1.25 9.5-1.25 4 0 16.5 4.75 5.75 2.25 10.25 2.25 11 0 22.75-14.75 11.25-14 17.75-31.25 3.75-10.5 3.75-19.25 0-10-8-17-6.75-5.75-16.25-5.75-9.25 0-18.5 5.75-4.5 3-19.25 17.25-16.5 15.5-27 15.5-7.25 0-12.5-5.75-4.5-5-4.5-11.75 0-11.5 23.5-22.75 44.25-21 64.75-41.5 19-19.25 19-46.5 0-34.75-30.5-58-26.5-20.25-64.25-20.25-9.5 0-35.75 3.25-24.25 2.75-27.25 2.75-2.75 0-7.25-0.75-7-1-10.25-1-12 0-18.75 6-10 8.75-18.75 28.25-9 20-9 35.75 0 13 7 19 3.75 3.25 10.75 3.25 7.75 0 17.5-8.5 3.5-3 20.25-20.75 12.5-13.5 20-16.75 5.75-2.5 11.5-2.5 9.5 0 14 5.25 4.25 5 4.25 10.75 0 11.25-19.25 20.5-35 17.25-53 35.75-23 23-23 53.75 0 29.75 18.25 51.25 26.25 30.75 70.5 30.75z" horiz-adv-x="233" />
<glyph unicode="&#x74;" d="M161.5 250.5v-84.5q0-15 7-24 7.75-10.25 19.25-10.25 9.75 0 25.75 9.25 3.75 2.25 7.75 2.25 5.75 0 10.75-7.5 5-7.25 5-15.5 0-15.5-17-30-35.75-30.25-85.75-30.25-38.5 0-63 21.75-25.75 22.75-25.75 60.75v115.5q0 6.25-1.75 7.5-1 1-6.75 1h-25.75q-7.5 0-9.25 2.5-1.75 1.75-2 11v11q0.25 7.5 5.75 11l114.5 72q4.25 2.25 10.5 2.25h20.25q6 0 7.75-2 2.75-3.75 2.75-12.25v-33.75q0-7.5 2.25-9.5 2.75-2.5 10.25-2.5h46.25q9.25 0 12.25-4 2.5-3.5 2.5-13.75v-14.75q-0.25-11.75-3.25-16.25-3.75-5-13-5h-45.25q-7.25 0-9.5-2.5-2.5-2.75-2.5-9.5z" horiz-adv-x="241" />
<glyph unicode="&#x75;" d="M142.75 301.75v-135.5q0-43.75 28.5-43.75 9.75 0 18 6.75 9.25 7.5 11 30.75 0.75 9 0.75 30.75 0 40.25-2.75 55.75-1.5 7.5-5.25 11-1.75 1.75-7.75 4.75-14.5 7.5-14.5 19.5 0 11 15.75 18.25 11.25 5 44.5 9.75 32.5 4.75 56.5 4.75 25.25 0 25.25-26.5l-0.5-11.5-0.25-12.25-0.5-17.25v-110.25q0-8.5 14.5-15.5 12.25-6 12.25-17.5 0-22.5-53.25-34.75-31.25-7.25-61.5-7.25-14.25 0-18.5 5.75-1.5 2.25-2 7.75-1.5 15.5-9.75 15.5-3.75 0-20.5-11.5-25.5-17.5-54.75-17.5-47 0-67.25 27.75-12 16.5-14.75 41-2 20-2 47.25 0 10 0.25 25.25v12q0 18-3.25 28.75-3.5 12.25-14.75 18.25-10.25 5.5-12.25 8-2.75 3.75-2.75 9 0 14 18.75 21.75 11.75 4.5 44.75 9 35.5 4.75 63.5 4.75 14.5 0 14.5-12.75z" horiz-adv-x="342" />
<glyph unicode="&#x76;" d="M278 237.75l-64.75-126q-16.25-32.25-29.75-44.75-7.75-7.25-18.25-7.25-11.5 0-19 8.5-15.25 17-26.75 38.5l-71 134.75q-5.75 11-13.25 17.75-3.75 3-12.75 5.5-19 5.5-19 20.75 0 15 22.25 21.75 23.25 7.25 74.75 7.25 83.5 0 83.5-24.5 0-9.25-9.5-17.75-9.5-8.75-9.5-15 0-6.5 6.75-20 13.75-27.75 24.75-27.75 5.75 0 9.25 4 4.75 4.75 18.75 31.25 4.5 8.5 4.5 16.25 0 6-8 14.25-8.5 9-8.5 16.75 0 8.5 9.25 14.25 13 8.25 59 8.25 50.75 0 50.75-22.5 0-12.25-18.25-18.25-13.25-4.25-18.75-9-4.5-4.25-16.5-27z" horiz-adv-x="336" />
<glyph unicode="&#x77;" d="M304 110.25l-25.75 41.25q-7.75 12.25-10 14.75-4 4.75-8.5 4.75-9 0-18.5-16.5l-41.75-72q-12-20.75-27-20.75-17 0-33.75 28l-75 124.75q-18.75 30.25-29.25 39.5-5 4-18 7.75t-13 18.75q0 13.75 18.75 22.5 11.75 5.25 35.5 8.75 20.5 2.75 41 2.75 79.75 0 79.75-29.5 0-5.5-7.75-17-1.5-2-1.5-4.5 0-4 7.5-19.25 16.5-32.75 27-32.75 5.75 0 13.5 12.5 9 14.25 9 20.25 0 8.75-7.5 16.5-1.5 1.75-14 10.25-8.75 6-8.75 14.5 0 6.25 4 10.75 11.25 12.75 48.75 16.25 24.25 2 44 2 41 0 58-7.5 13.5-6 13.5-19 0-6.75-3.5-12.25-1-1.5-9.25-10-2.75-3-2.75-7.25 0-6.25 7.5-21.5 13.5-26.5 22.25-26.5 7 0 17.25 15.75 15.5 23.5 15.5 33 0 4.5-8 14.75-5.75 7-5.75 15.25 0 12.75 11.75 18 16.5 7.25 48 7.25 35.75 0 47.75-7.25 11.5-6.75 11.5-18 0-8.25-7-14-1.25-1-17.5-7-10-3.75-15-9.75-5.25-5.25-14.75-23.5l-62.5-121q-27.5-53-48.5-53-9.25 0-17.5 8.75-13 13.5-29.75 40.5z" horiz-adv-x="521" />
<glyph unicode="&#x78;" d="M91.25 206.75l-21.25 26.75q-16 20-25.25 26.25-4.75 3.25-15.75 5.5-19.75 4.25-19.75 19.5 0 29.75 103.75 29.75 52.5 0 66.75-8.25 11.25-6.5 11.25-16 0-6-8.25-19-1.5-2.5-1.5-5.25 0-7 12.5-20.75 4.25-4.75 7.25-4.75 4 0 10.75 8.25 11 13.75 11 19.5 0 4-5.25 12-4.75 7-4.75 10.75 0 8.5 8 15.25 10.25 8.25 44.5 8.25 19.25 0 27-2.5 11.75-3.75 16-13.75 1.75-3.5 1.75-7 0-4.5-3-8.25-3-4-18.25-11.5-9.25-4.5-17-14.5-3.5-4.5-22.5-30.25l-17.25-26q-3-4.25-3-5.75 0-1 2.75-5.5l15-22.75q24.5-36.75 35.5-47.5 5.75-5 17.75-10.5 11.5-5.25 11.5-17.5 0-13.5-14.75-20.5-18.75-9-81.75-9-43.75 0-60.75 4-22.75 5.5-22.75 23.25 0 10.75 13.25 16.75 7.25 3.25 7.25 10.5 0 11.75-16.25 30.25-6.5 7.25-9.75 7.25-7.5 0-21.25-23.25-9-15.25-9-22 0-4 6.25-11.25 5.25-6.25 5.25-13.75 0-21.75-51.25-21.75-23.25 0-37.5 4.25-15 4.5-15 19.25 0 9 6 13.5 2.75 2 12.25 3.75 11.5 2.25 19.25 12.25 6.5 9 33 51l18 29.75q2.5 4 2.5 5.75 0 1.5-3.25 5.5z" horiz-adv-x="316" />
<glyph unicode="&#x79;" d="M251.25 193l-33-90.75q-23.25-63.5-52.75-91.75-32.5-31-78.25-31-36.75 0-60 19.75-17.75 14.75-17.75 38 0 19.25 12.75 32.75 12.5 13 30.25 13 17.5 0 28.75-12.25 7.25-7.75 9.75-17.75l2.5-10.5q1.5-6.25 6.75-9.5 2.75-1.75 5.5-1.75 8.5 0 14.25 8 4.25 6 4.25 15.5 0 12-13 39.5l-60.25 128.25q-10.75 21.75-16.25 27-3.5 3.25-19 10.25-4.25 1.75-8.25 7.25-4 5.75-4 12.25 0 7.75 5.25 13.25 13 14 52.25 18.75 29 3.25 54.5 3.25 37.25 0 51.25-11 10.5-8.25 10.5-18.75 0-6.75-5.75-15.25-5.5-8-5.5-14 0-9.25 8.5-25.75 14-26.5 21.75-26.5 10.75 0 19 21.75 5.5 14 5.5 23.5 0 11.25-6.25 18.5-9.5 11.25-9.5 19.25 0 12.5 14 19 19.5 9.25 48.5 9.25 53 0 53-26.25 0-8-5.25-14-4.25-5.25-19.75-11-10-3.75-14.5-8.75-12.5-14.75-29.75-61.5z" horiz-adv-x="324" />
<glyph unicode="&#x7a;" d="M137.25 309.75h66.25q30.25 0 34.75-2 8.5-4 8.5-14.5 0-9.25-8.25-23.75l-66.25-117.75q-8.25-14.75-8.25-20.75 0-11.75 17.75-11.75 13.5 0 22.25 6.5 6.25 4.5 12.5 16.5 5.75 11.5 9.5 15.375t9 3.875q10.75 0 17.75-8.25 7.25-8.25 7.25-22.25 0-24.25-17-48.25-16.5-23.75-31.25-23.75-4 0-10 2.25-12.5 5.5-29 5.75h-131q-33.25 0-33.25 19 0 5.75 7.5 18 1.5 2.75 12.5 21l57.25 92q16 25.5 16 32.5 0 9.75-21 9.75-10.25 0-16.5-3.5-6.5-3.75-14.25-16-7.25-11.75-10.5-15.25-6-6-13.75-6-9 0-15.5 7.25-6.75 7.25-6.75 19.75 0 22.5 15.25 48.25 14.5 25 28 25 2.75 0 7.75-1.75 14-4.75 29.25-6 8-0.25 53.5-1.25z" horiz-adv-x="264" />
<glyph unicode="&#x7b;" d="M128.25 172.75v-16q0-32.5 2.75-38 4-8.25 16.5-10.5 8.5-1.5 22-1.5 2.5 0 11 0.25 3.25 0.25 5.5 0.25 27.75 0 27.75-17.5 0-20.25-28.75-24.75-21.75-3.25-72.25-3.25-31.5 0-48.5 9.25-20 10.75-25.75 33.5-3.5 13.5-3.5 31v32.25q-0.25 25.25-6.75 33.75-7.75 9-21.25 12.5-17.25 5-17.25 23.75 0 18.5 17.25 23.5 13.5 3.5 21.25 12.75 6.5 8.25 6.75 33.25v32.5q0 33.75 12.25 50.25 9.5 13 28 19 13 4.5 37.5 4.5 56.25 0 76.75-4 13-2.75 19.25-10.5 5-6.5 5-13.5 0-17.5-27-17.5h-6.25q-9.75 0.5-11.5 0.5-23 0-31.75-5-7.5-4.25-8.75-17.25-0.25-4.25-0.25-27.75v-16q-0.5-45-24.25-60.25-2-1.5-2-3.75 0-3.25 8.5-10.5 17.25-16.5 17.75-55.25z" horiz-adv-x="218" />
<glyph unicode="&#x7c;" d="M71.5 408.25h112.75v-426.5h-112.75v426.5z" />
<glyph unicode="&#x7d;" d="M89.25 302.5v16q0 32.5-2.75 38-3.75 8.25-16.5 10.5-8.5 1.5-22 1.5-3.5 0-11-0.25-3.75-0.25-5.5-0.25-27.75 0-27.75 17.5 0 20.25 28.75 24.75 21.75 3.25 72.25 3.25 31.5 0 48.75-9.25 19.75-10.5 25.75-33.5 3.5-13.5 3.5-31v-32.5q0.25-25 6.75-33.25 7.75-9 21.25-12.75 17-5 17-23.5 0-18.75-17-23.75-13.5-3.5-21.25-12.5-6.5-8.5-6.75-33.75v-32.25q0-33.75-12.25-50.25-9.5-12.75-28-19-13-4.5-37.75-4.5-56.5 0-76.75 4-13.25 2.75-19.25 10.75-5 6.25-5 13.25 0 17.5 27 17.5 3.25 0 17.75-0.5 23.5 0.5 31.75 5 7.75 4.75 8.75 17.25 0.25 5 0.25 27.75v16q0.5 29.5 9.25 44.75 5 8 14.75 15.5 2 1.5 2 3.75 0 3.25-8.25 10.5-7.25 6.5-11.5 16.5-6 13-6.25 38.75z" horiz-adv-x="218" />
<glyph unicode="&#x7e;" d="M99.5 335.75l-52.75 45q11 28.75 21.5 44.5 24.75 37 61.25 37 11.5 0 28-5.5 3.25-1 28.25-9.25 26.25-9 31.75-9 9 0 16.25 8.5 2.75 3.25 10 16.75l52.75-44.75q-12-29.75-20-42.25-25.5-40.25-62.5-40.25-10.75 0-39.25 9.75l-16.75 5.5q-26.25 9.25-32.75 9.25-12.75 0-25.75-25.25z" horiz-adv-x="342" />
<glyph unicode="&#xa6;" d="M71.5 408.25h112.75v-188.75h-112.75v188.75zM71.5 145.5h112.75v-163.75h-112.75v163.75z" />
<glyph unicode="&#xa7;" d="M50.25 110.75q11.25 0 19-5.25 2.25-1.5 10.75-11.25 17.25-19.5 44.75-19.5 28.25 0 28.25 16.75 0 11.75-27.5 18-53.75 12.25-83.25 28.5-14 7.75-23.5 23t-9.5 33.25q0 35 34 57 2.5 1.5 2.5 2.75 0 0.75-16 15-8.25 7.25-13 21.5-3.25 10-3.25 20.75 0 31.75 28 50.25 33 22 92.25 22 60.75 0 95.75-19.75 19-11 19-25 0-8.25-9-14.5-16.5-11.5-34.25-11.5-7.75 0-14 4-1.25 0.75-11.5 10.25-16.5 15.25-39 15.25-13.25 0-20-6.25-4.25-3.75-4.25-8.25 0-3.5 1.75-6.25 5-9 32.75-14.25 26.75-5.25 52.75-14.5 50-18 50-63.75 0-23.5-17.75-43-8-9-16-13.75-4-2.25-4-3.75 0-2 6.25-5.25 4-2.25 13.75-11 16.5-15 16.5-42.25 0-33-27.75-53.75-32.25-24.25-91-24.25-68.75 0-107.25 26.5-11.75 8.5-18.5 21.5-2.25 4.5-2.25 9.25 0 7 7.75 12.25 6 4.25 18.75 7 10 2.25 18 2.25zM110.25 199.5l38-11q2-0.75 3.25-0.75 2.75 0 6.75 7.25 3.5 6 3.5 11.5 0 11.75-16 16.25l-37.75 10.5q-1.25 0.25-2.75 0.25-3.25 0-7-5-4.5-6.25-4.5-12.75 0-11.5 16.5-16.25z" horiz-adv-x="260" />
<glyph unicode="&#xa8;" d="M72.5 426q22 0 33-11.25 9-9.25 9-23 0-20.75-18.5-32.75-20.25-13-46.5-13-13.5 0-23.25 7.25-13.5 10.25-13.5 28 0 20.75 15.75 32.75t44 12zM201.5 425q22 0 33-11.25 9-9.25 9-22.75 0-21-18.5-32.75-20.25-13-46.5-13-13.5 0-23 7.25-13.75 10-13.75 28 0 20.75 15.75 32.5 16 12 44 12z" />
<glyph unicode="&#xa9;" d="M199.75 335.25q21 0 40.25-8.75 8.75-4 12-4 1.75 0 7.75 1.5 2 0.5 4.5 0.5 7.75 0 13.75-7 14-16 14-39.5 0-17-12.5-24.75-6.75-4.5-15-4.5-13.75 0-21.75 14.25-9.75 17-18.75 23-13 8.75-27.5 8.75-12.75 0-20.75-8.75-8.75-9.25-8.75-26 0-22.25 12-40.75 15.75-24.75 45.75-24.75 24.75 0 38.75 12.5 5.75 5.25 9.75 5.25 5.5 0 9.25-4.5 4.25-5 4.25-11.5 0-11.5-8.5-24.5-6-9-12.5-11.75-1.75-0.75-9.25-2-5-1-13.75-4.75-21.5-9.75-44-9.75-37 0-66.25 20.75-18 12.75-28.75 33-11.25 20.5-11.25 42 0 30 19.75 54.75 17.25 21.5 44.75 32.75 20.75 8.5 42.75 8.5zM200.75 415q50.25 0 95-26.25 44.75-26 68.75-70.5 20.5-38.25 20.5-80.75 0-50-27.5-92.5t-74.25-65.25q-40-19.5-85.25-19.5-52 0-97 25.75-45.5 25.75-70 70.75-20.75 38.25-20.75 80.5 0 50.75 28 93.75 27 42 75.5 65 39.75 19 87 19zM196.5 381.25q-40 0-76.25-20.75-36.5-21.25-56-57.25-16.5-31-16.5-65.5 0-40.75 22.5-75.5 22.25-34.5 60.25-52.75 32.25-15.5 67.5-15.5 42 0 78.25 21.25 36 21.25 55.25 57.25 16.25 30.75 16.25 64.75 0 41-22.25 75.75-21.5 34-59.25 52.5-31.75 15.75-69.75 15.75z" horiz-adv-x="395" />
<glyph unicode="&#xab;" d="M137.5 105.5q0.25 3 0.25 4.5 0 9-5 17.5-4.5 7.5-24 36.5-15.5 23.5-15.5 34.25 0 6 6.75 18 8.25 14.75 33.5 53.25 5.5 8.75 5.5 21.75 8.75 6.75 12.5 9.25 13 9.5 22.25 9.5 6 0 12-4.75 9.25-7 9.25-17.25 0-7.75-4.75-15l-21.25-32.75q-20-30.25-20-42.25 0-13.25 16.75-38 18.5-27.75 23.5-36.5 4.25-7 4.25-14.5 0-8.5-7.25-14.75-7.5-6-16.5-6-12.25 0-32.25 17.25zM110.5 310.25q6.75 0 12.75-4.5 9.25-7.25 9.25-17.5 0-7.75-4.75-15l-21.5-32.5q-20-30.5-20-42.5 0-12.75 16.75-38 19.5-29 23.75-36.25 4.25-7 4.25-14.5 0-8.5-7.5-14.75-7.25-6-16.5-6-12.25 0-32.75 17.75-18.5 16.25-46.5 48-24.25 27.5-24.25 43.75 0 22.75 40.75 64 47.25 48 66.25 48z" horiz-adv-x="198" />
<glyph unicode="&#xad;" d="M50.75 245.5q4.25 0 11.75-0.75 32-3.25 46.25-3.25 16.25 0 23.5 1.25 8.25 1.25 11 1.25 8 0 8-11.75 0-24-17.25-59-6.5-13.75-11.5-17.5-3.75-3-8.25-3t-12.25 1.25q-21.75 3.75-50.75 3.75-12.5 0-22.75-1-8.5-0.75-12.5-0.75-10.25 0-10.25 11.5 0 6.25 5 24.5 9.75 35.5 24 48.5 5.75 5 16 5z" horiz-adv-x="158" />
<glyph unicode="&#xae;" d="M187 223.25q-4 0-5.25-1.75-1.5-2.25-1.5-16.5 0-14 2.25-23.25 0.75-3.5 6.5-6.5 9.5-5 9.5-13.25 0-7.25-6.75-11.25-11-6.5-46-6.5-53.75 0-53.75 20.25 0 6.25 9.25 12 7 4.5 8.75 12.25 2 9.75 2.25 22.75l0.25 40v19q0 18.75-2.5 25.5-1.75 4.5-7 7-11.25 5.25-11.25 12.75 0 17 33 17 3.75 0 23.75-1.5 5.25-0.25 11.25-0.25 10.5 0 33 1.5 13.75 1 21 1 28.25 0 48.25-14 18.5-12.75 18.5-35.5 0-16.5-10.5-28.25-6-7-13.5-10.5-3.75-1.75-3.75-3.5 0-2.25 5.75-4.5 16-6.25 23.5-18 6-8.75 9-29.75 1.25-8.5 3.5-10.75 2.5-2.25 10-4.25t7.5-11q0-7.25-8.25-13.25-11.25-8.25-36.75-8.25-25.75 0-38.25 11-11.5 10.25-21 48.25-3.25 12.25-7.75 16.5-5.25 5.5-13 5.5zM180.5 292.5l-1.5-31q-0.25-3.5 0.5-5.25 1-2.25 5-2.25 13 0 18 6.75 4 5.5 4 17 0 23.75-17.5 23.75-4.5 0-6.25-1.75-2-1.75-2.25-7.25zM200.75 415q50.25 0 95-26.25 44.75-26 68.75-70.5 20.5-38.25 20.5-80.75 0-50-27.5-92.5t-74.25-65.25q-40-19.5-85.25-19.5-52 0-97 25.75-45.5 25.75-70 70.75-20.75 38.25-20.75 80.5 0 50.75 28 93.75 27 42 75.5 65 39.75 19 87 19zM196.5 381.25q-40 0-76.25-20.75-36.5-21.25-56-57.25-16.5-31-16.5-65.5 0-40.75 22.5-75.5 22.25-34.5 60.25-52.75 32.25-15.5 67.5-15.5 42 0 78.25 21.25 36 21.25 55.25 57.25 16.25 30.75 16.25 64.75 0 41-22.25 75.75-21.5 34-59.25 52.5-31.75 15.75-69.75 15.75z" horiz-adv-x="395" />
<glyph unicode="&#xaf;" d="M0 494.75h256v-64.25h-256v64.25z" />
<glyph unicode="&#xb1;" d="M90.75 127.5q-0.25-14-1.25-23-0.25-4-0.25-6.5 0-8.25 6-13.5 5.25-4.5 10.75-4.5 7.5 0 35.5 10.5 21.25 7.75 25.25 19.25 1.5 3.75 1.5 8.5 0 1.25-0.5 9.25h43.25q19.5 0 23.5 0.5 5.25 0.75 6.75 0.75 4 0 6.75-3 2.75-2.75 2.75-6.75 0-6.75-6-24.5-7-20.75-12.75-25.75-3.75-3.25-8.5-3.25l-39.75 3.5h-112q-35.25 0-49.75-1.5-3.25-0.25-5.5-0.25-5.5 0-8.75 3.75-2.75 3-2.75 6.25 0 3.75 6.5 22.25 8.25 23.25 14.5 27.75 4.25 3.25 10 3.25 3 0 7.75-0.5 24-2.5 40.75-2.5h6.25zM84 184h-12.25q-34.5 0-49.75-1.5-3.5-0.25-5.5-0.25-5.5 0-8.75 3.5-2.75 3.25-2.75 6.5 0 3.75 6.5 22.25 8.25 23.25 14.5 27.75 4.25 3.25 10 3.25 3 0 7.5-0.5 27-2.5 34.25-2.25h6.25q14 0 13.75 13.5v16.25q-0.25 15.75-3 34.5-0.5 2.75-0.5 5.25 0 9 15.5 16 5.25 2.25 22.25 7.5 11.5 3.75 17.5 3.75 5 0 8-3.5 2.25-2.75 2.25-6 0-1.5-0.75-6.75-0.5-3.25-0.5-23.5v-43.5q0.25-13.25 13.75-13.5h38.75q19.5 0 23.5 0.5 5.25 0.75 6.75 0.75 4 0 6.75-3 2.75-2.75 2.75-6.75 0-6.75-6-24.75-7-20.75-12.75-25.75-3.75-3.25-8.5-3.25l-39.75 3.5h-11.5q-14.75 1-13.75-13.75v-4q-0.25-18.75 2.5-41 0.5-4.5 0.5-7.75 0-10.75-15.5-18-7.5-3.5-21.875-8.125t-17.875-4.625q-4.25 0-7.5 3.5-2.75 3-2.75 8.25 0 2 0.25 5.25 1.5 18 1.5 49.75v16.75q0.75 14.5-13.75 13.75z" />
<glyph unicode="&#xb2;" d="M123.5 203.5h-109q-16 0-16 9.5 0 3 2.25 6.25t21 19.75q31.25 27 45.5 49.5 7.5 11.5 7.5 19.5 0 14.5-15.5 14.5-7.5 0-13.5-3.5-1.5-1-13.5-10-4-3.25-10-3.25-8.5 0-15.5 6-6.75 6-6.75 12.75 0 14 22 28.25 35.25 23.25 77.5 23.25 24.5 0 44.5-7.5 14.5-5.5 22-15 9-11.5 9-24.75 0-26.75-39.75-57.25-13-10-13-14.75 0-1.5 1.25-3.25 3.75-4.75 11-4.75 13.5 0 24.5 9.75 8.75 7.5 13.25 7.5 16.25 0 16.25-23.5 0-25.25-17.5-43.75-9-9.25-19.5-9.25-7.5 0-13.25 8.25-3.25 4.5-6.75 5.25-2.5 0.5-8 0.5z" horiz-adv-x="192" />
<glyph unicode="&#xb3;" d="M82 376.25q31 0 55.25-10.75 11.75-5.25 17.75-15.5 3.75-6.75 3.75-14.25 0-17-19-30.5-4.25-3-4.25-4.75 0-3 7.5-4 17.25-2.75 27.75-10.5 17-12.25 17-35 0-24.5-18.25-44.25-17-18.5-49.75-27.5-23.5-6.25-51.5-6.25-26 0-45.75 5-27.5 7-27.5 20.5 0 7.25 5.75 12.25 5.25 4.75 13.25 4.75 4 0 22-4 5.75-1.25 16.25-1.25 23.75 0 35 13.25 5.75 6.5 5.75 12.75 0 12-11.25 18.25-8.25 4.5-20 4.5-9 0-16.25-2-4.5-1.25-6.75-1.25-3.5 0-7.25 4.75-7.25 9.5-7.25 20 0 4 2.75 6 1.25 1 13.75 5 14.25 4.75 22.75 15.75 2.75 3.75 2.75 8.5 0 7.75-6.75 13.5t-15.75 5.75-25.75-8.25q-3.75-1.75-6.25-1.75t-5.25 2.25q-7.5 6.25-7.5 15.75 0 11 20.25 20.5 27.25 12.75 62.75 12.75z" horiz-adv-x="192" />
<glyph unicode="&#xb4;" d="M158.25 424.5q33.5 0 49.5-12 9.5-7.5 9.5-15.25 0-11.75-21.25-28-38-29.25-83-29.25-26.25 0-26.25 18.5 0 9.5 12.75 19.25l4.75 3.75q11.75 8.5 13.25 10.25 3.25 3.75 3.25 6.75 0 2-3 7.5-1 1.75-1 3.75 0 4.75 6 8 11.75 6.75 35.5 6.75z" />
<glyph unicode="&#xb6;" d="M246 325.5v-276.25q0-21.25 2.25-40.75 0.5-5 0.5-8 0-10.75-13.75-17.75-5.25-2.75-24-9.75-8.75-3.25-12-3.25-3.75 0-6.75 3.75-2.5 2.75-2.5 8 0 2 0.25 5.25 1.25 18 1.25 49.75v305q0 8.75-2.5 11.25-2.25 2.5-11.25 2.5h-8q-9.5 0-12.5-3.5-1.25-2.25-1.25-10.25v-292.25q0-21.25 2.25-40.75 0.5-5 0.5-8 0-10.75-13.75-17.75-5.25-2.75-24-9.75-8.75-3.25-12-3.25-3.75 0-6.75 3.75-2.5 2.75-2.5 7.75 0 2.25 0.25 5.5 1.25 17 1.25 38.5v167.25q0 9-2 11.5-3.5 3.25-14.25 3.75-13.5 0.75-25.25 5.5-28.25 11.75-43.75 42-12 24-12 56 0 58.75 39.5 86.5 22.5 15.75 50.75 15.75 10.25 0 49.75-4.5 20-2.25 57.75-2.25 16.5 0 45.25 1 5.75 0.25 10.5 0.25 19 0 27-7.75 6.25-6.25 6.25-13.75 0-14.75-22.25-20.75-14.75-4-18.25-9.75-3.75-5.75-4-30.5z" horiz-adv-x="291" />
<glyph unicode="&#xb7;" d="M71.5 258q28 0 47.5-21.5 16.5-17.75 16.5-42.5 0-29-19.5-47.5-7.5-7.25-18.5-12-14-6.25-26.75-6.25-17.5 0-34.75 10.25-16.25 9.5-24.25 27-6 13.5-6 28.5 0 25.25 16.5 42.5 20 21.5 49.25 21.5z" horiz-adv-x="141" />
<glyph unicode="&#xb8;" d="M128.25 46.5q17.75 0 30.25-11.75 13.5-12.5 13.5-32 0-23.25-20.25-46.75-14.5-16.75-29.75-16.75-6.75 0-11 4-3.75 3.5-3.75 7.25 0 2.75 4 6.75 12.75 12.5 12.75 19.75 0 4.75-5.25 6.25-28.25 8.75-28.25 31.75 0 12 9.25 20.75 11.5 10.75 28.5 10.75z" />
<glyph unicode="&#xb9;" d="M24.5 235.75q1.5 0 10.25-1.25 4.5-0.5 6.5-0.5 7.75 0 11.25 8.75 3.25 7.5 3.25 73 0 8.25-4 10.5-3.25 2-10.5 2-2.25 0-6.5-0.5-3.25-0.25-6-0.25-7.25 0-11 4.75-2.5 3.25-2.5 6.75 0 8.25 12.75 15.75 13.75 8 44.25 14.75 30.75 6.75 60.5 6.75 28 0 28-14.5 0-7.25-11.5-12.25-8-3.25-10-8.5-2.25-5.5-2.25-40.5 0-51.25 5.5-60.25 3.5-5.5 21.25-6.25 16.75-0.75 16.75-13.25 0-11.75-19.25-15.75-27-5.5-64.75-5.5-31.75 0-61.25 6-20.75 4.25-25 11-1.75 3-1.75 6.25 0 4 2.5 7 4.75 6 13.5 6z" horiz-adv-x="192" />
<glyph unicode="&#xba;" d="M106 354q29.75 0 52-14.25 16.25-10.25 26-26.75 10.25-17.25 10.25-36.25 0-33-32.5-55.75-31-21.75-70.5-21.75-38.5 0-63 20.5-23.75 19.75-23.75 52 0 36 28.75 58.5 30.25 23.75 72.75 23.75zM93.25 316.5q-14 0-14-15.75 0-16 8.75-42 5.25-15.5 11.25-18.5 2.75-1.25 6.25-1.25 12.75 0 12.75 13.75 0 30-12 54.25-4.75 9.5-13 9.5z" horiz-adv-x="199" />
<glyph unicode="&#xbb;" d="M68.75 103.25q15 13.75 36 36.5 22.75 24.75 29.5 39 5 10.5 5 19 0 25.75-42.5 69-15 15-29.75 27.25 6.5 16.25 20.25 16.25 12.25 0 37.75-21 23.25-19.25 45-43.75 25-28.5 25-47.25 0-10.75-9.5-25.5-8.25-12.75-40.75-46.25-23.75-24.5-39.25-34-6.25-3.75-14-3.75-15.5 0-22.75 14.5zM26.25 310q10.5 0 36.25-21.25 24.25-19.75 45-43.5 25-28.75 25-47.25 0-11-8.625-24t-32.875-38.75q-27.25-28.75-41.5-38.75-11.5-8.25-20.5-8.25-9.25 0-16.75 6.25-7.25 6-7.25 14.5 0 7.5 4.25 14.75 4.75 8 23.75 36.25 16.75 25 16.75 38 0 7.5-7.5 21.25-7.75 14-34 53.75-4.75 7.25-4.75 15 0 10.25 9.25 17.25 6.25 4.75 13.5 4.75z" horiz-adv-x="198" />
<glyph unicode="&#xbc;" d="M150.75 196.5q18.75 2.5 26 6.75 10.5 6 10.5 17.5 0 11.75-11.75 17.5l29 49q30.25 52.5 40.75 74 7.5 15.75 15.5 19.25 4.75 2.25 13 2.25 24.25 0 24.25-11.5 0-8.5-19.5-37.25-13.25-18.5-41.25-66l-77.25-130.75q-20.5-38-44.75-81.5-8.5-17.25-15-21-4.75-2.5-10.25-2.5-15.5 0-24.75 5.25-4.75 2.75-4.75 7.25 0 5.5 5.25 13.25 7.75 11.75 41.25 65l21.5 36zM24.5 235.75q1.5 0 10.25-1.25 4.5-0.5 6.5-0.5 7.75 0 11.25 8.75 3.25 7.5 3.25 73 0 8.25-4 10.5-3.25 2-10.5 2-2.25 0-6.5-0.5-3.25-0.25-6-0.25-7.25 0-11 4.75-2.5 3.25-2.5 6.75 0 8.25 12.75 15.75 13.75 8 44.25 14.75 30.75 6.75 60.5 6.75 28 0 28-14.5 0-7.25-11.5-12.25-8-3.25-10-8.5-2.25-5.5-2.25-40.5 0-51.25 5.5-60.25 3.5-5.5 21.25-6.25 16.75-0.75 16.75-13.25 0-11.75-19.25-15.75-27-5.5-64.75-5.5-31.75 0-61.25 6-20.75 4.25-25 11-1.75 3-1.75 6.25 0 4 2.5 7 4.75 6 13.5 6zM351 233.5v-102q0-6.25 4.5-6.25h6.75q9.5 0.25 9.75-10.25v-30q-0.25-9-10.25-10.5-5.25-1-6-1.75-1-0.5-1-4.75v-17.5q0.75-11-11-11.5h-54.5q-12 0.5-11.25 11.5v15.25q0 5.25-2 7.25-1.5 2-8 2h-62q-12 0-17.25 5.25-4.75 4.5-4.75 15.25 0 15 3.75 23.5 4.75 10.25 26 34l40.5 45q30.5 33.75 45.75 43.25 15.25 9.75 34.5 9.75 16.5 0 16.5-17.5zM280.5 157v7.25q0 11.5-6.75 11.5-5 0-9.75-5.5l-24.5-28q-10.25-11.5-10.25-15.75 0-3 3.5-4 7.25-1.75 32.75-1.75 10.75 0 12.25 2.5 2.75 4 2.75 33.75z" horiz-adv-x="376" />
<glyph unicode="&#xbd;" d="M214.25 229q-36.75-20.25-36.75-41.25 0-5.75 4.75-12.75l-22.25-37.75q-20.5-37.75-44.75-81.5-8.5-17.25-15-21-4.75-2.5-10.25-2.5-15.5 0-24.75 5.25-4.75 2.75-4.75 7.25 0 5.5 5.25 13.25 7.75 11.75 41.25 65l21.5 36 22.25 37.5q18.75 2.5 26 6.75 10.5 6 10.5 17.5 0 11.75-11.75 17.5l29 49q30.25 52.5 40.75 74 7.5 15.75 15.5 19.25 4.75 2.25 13 2.25 24.25 0 24.25-11.5 0-8.5-19.5-37.25-13.25-18.75-41.25-66zM24.5 235.75q1.5 0 10.25-1.25 4.5-0.5 6.5-0.5 7.75 0 11.25 8.75 3.25 7.5 3.25 73 0 8.25-4 10.5-3.25 2-10.5 2-2.25 0-6.5-0.5-3.25-0.25-6-0.25-7.25 0-11 4.75-2.5 3.25-2.5 6.75 0 8.25 12.75 15.75 13.75 8 44.25 14.75 30.75 6.75 60.5 6.75 28 0 28-14.5 0-7.25-11.5-12.25-8-3.25-10-8.5-2.25-5.5-2.25-40.5 0-51.25 5.5-60.25 3.5-5.5 21.25-6.25 16.75-0.75 16.75-13.25 0-11.75-19.25-15.75-27-5.5-64.75-5.5-31.75 0-61.25 6-20.75 4.25-25 11-1.75 3-1.75 6.25 0 4 2.5 7 4.75 6 13.5 6zM308 67h-109q-16 0-16 9.5 0 3 2.25 6.25t21 19.75q31 27 45.5 49.5 7.5 11.5 7.5 19.5 0 14.5-15.5 14.5-7.5 0-13.5-3.5-1.5-1-13.5-10-4-3.25-10-3.25-8.5 0-15.5 6-6.75 6-6.75 12.75 0 14 21.75 28.25 35.5 23.25 77.75 23.25 24.5 0 44.5-7.5 14.5-5.5 22-15 9-11.25 9-24.75 0-27.25-39.5-57.25-13.25-9.75-13.25-14.75 0-1.75 1.25-3.25 3.75-4.75 11-4.75 13.5 0 24.5 9.75 8.75 7.5 13.25 7.5 16.25 0 16.25-23.5 0-25.25-17.5-43.75-9-9.25-19.5-9.25-7.5 0-13.25 8.25-2.75 3.75-5.25 4.75t-9.5 1z" horiz-adv-x="376" />
<glyph unicode="&#xbe;" d="M140.25 179.25q21.5 9.25 34 22.75 20 21.25 20 48.75 0 6.5-2.25 15.5l12.25 21q30.5 52.75 40.75 74 7.5 15.75 15.5 19.25 4.75 2.25 13 2.25 24.25 0 24.25-11.5 0-8.5-19.5-37.25-12-16.75-41.25-66l-77.25-130.75q-23.5-43-44.75-81.5-8.5-17.25-15-21-4.75-2.5-10-2.5-15.75 0-25 5.25-4.75 2.75-4.75 7.25 0 5.5 5.25 13.25 32.75 50.25 62.75 101zM81.75 376.25q31 0 55.25-10.75 11.75-5.25 17.75-15.5 3.75-6.75 3.75-14.25 0-17-19-30.5-4.25-3-4.25-4.75 0-3 7.5-4 17.25-2.75 27.75-10.5 17-12.25 17-35 0-24.5-18.25-44.25-17-18.5-49.75-27.5-23.5-6.25-51.5-6.25-26 0-45.75 5-27.5 7-27.5 20.5 0 7.25 5.75 12.25 5.25 4.75 13.25 4.75 4 0 22-4 5.75-1.25 16.25-1.25 23.75 0 35 13.25 5.75 6.5 5.75 12.75 0 12-11.25 18.25-8.25 4.5-20 4.5-9 0-16.25-2-4.5-1.25-6.75-1.25-3.5 0-7.25 4.75-7.25 9.5-7.25 20 0 4 2.75 6 1.25 1 13.75 5 14.25 4.75 22.75 15.75 2.75 3.75 2.75 8.5 0 7.75-6.75 13.5t-15.75 5.75-25.75-8.25q-3.75-1.75-6.25-1.75t-5.25 2.25q-7.5 6.25-7.5 15.75 0 11 20.25 20.5 27.25 12.75 62.75 12.75zM350.75 233.5v-102q0-6.25 4.5-6.25h6.75q9.25 0.25 9.75-10.25v-30q-0.25-9.25-10.25-10.5-5.25-0.75-6-1.75-1-0.5-1-4.75v-17.5q0.75-11-11-11.5h-54.5q-7.25 0-9.5 3.25-1.5 2.5-1.5 8.25v15.25q0 5.25-2 7.25-1.75 2-8 2h-62.25q-12 0-17.25 5.25-4.75 4.5-4.75 15.25 0 14.75 3.75 23.5 4.75 10.25 26 34l40.75 45q31 34 45.5 43.25 15.25 9.75 34.5 9.75 16.5 0 16.5-17.5zM280.25 157v7.25q0 11.5-6.5 11.5-5 0-10-5.5l-24.5-28q-10.25-11.5-10.25-15.75 0-3 3.5-4 7.25-1.75 32.75-1.75 11 0 12.5 2.5 2.5 3.75 2.5 33.75z" horiz-adv-x="376" />
<glyph unicode="&#xc6;" d="M243.25 409h166.25q30.5 0.25 45 5.75 10.5 3.75 14.25 3.75 11 0 19.5-9 9-9.5 15.25-28 5.5-16.75 5.5-33.75 0-18.5-10.25-28-7.25-6.75-15.75-6.75-12 0-22.75 16-13.25 19.5-27.75 24.5-20.5 7.25-53 7.25-29.5 0-37-6.5-6.5-5.75-6.5-27.75v-39.5q0-12.25 2.25-15.25 4.25-5.75 30.5-5.75 12.25 0 16.75 8.25 2 4 3 16.75 2 28.25 22.75 28.25 8.5 0 15.5-6.5 7.75-7.5 11-31.25 3-21.75 3-43.25 0-30.5-9.5-53-3.5-8.5-10.125-13.75t-13.875-5.25q-12.75 0-15.5 21.25-2.25 17.5-8.5 23.25-7.75 7.25-23.5 7.25-13.25 0-17.25-9.25-3-6.75-3-17.25 0-16.25 1.75-39.5 2-22.5 6.25-28 4.5-5.75 21.25-6.75 14.25-1 37-1 32 0 53.25 17.25 11.5 9.5 21.75 31 6.5 13.75 13.25 17.5 5.25 3 11 3 12.25 0 19-10.75 6-9.5 6-21.5 0-17.75-9.25-43.25-9.75-26.75-22.25-40.75-6.25-7-17.75-7-6.25 0-14.25 2-11.25 3-23.75 3h-3.5l-223.5-1.5q-28.5-0.25-28.5 21.25 0 15 18.25 22.75 14.75 6.25 14.75 15.25 0 5.5-3.25 8.75-6 6.25-26 6.5-3.25 0-28.75 0.75h-6.75q-20 0-25.25-3.25-7.25-4.25-7.25-11.5 0-6 5.5-10.25 1.25-1 9-5 15.75-8.5 15.75-21.5 0-27.25-73.25-27.25-38.75 0-57.75 7.25-7.5 2.75-13 9-5.75 6.5-5.75 14.5 0 6.25 4.5 12 4.25 5.5 17.75 10.25 9.5 3.5 15 9.75 4.5 5 27.5 41 22.75 35.5 46.5 78.75l52.75 96.5q9.75 17.75 9.75 24l-0.75 17.25q0 9 8.5 17 8 7.25 21 9.25 5.75 0.75 37.25 0.75zM227.5 238.5v35.25q0 12.75-1.25 16.75-2.5 7-9 7-3.75 0-8.5-4-2.75-2.25-9.75-15l-23.75-43.25q-7.5-13.5-7.5-20.5 0-8 7.25-11.75 6.25-3.25 28-3.25 13.25 0 18.25 5.25 6.25 6.75 6.25 33.5z" horiz-adv-x="534" />
<glyph unicode="&#xd7;" d="M207.75 251l-28.25-28.25q-4.75-4.75-4.75-9.5 0-5.25 4.75-10l28.25-28q13.25-13.5 17-16.25 8-6.25 8-11 0-7.25-14.25-14.75-27.25-14.5-37-14.5-5.75 0-11 6.25-22.5 27-23.5 28l-9 9q-4.5 4.5-9.5 4.5-5.25 0-9.75-4.5l-3-3q-10.75-10.75-24.75-28.25-8.5-10.75-16-10.75-8.5 0-32.75 11.75-15.25 7.25-17 10.5-1.5 2.5-1.5 5.5 0 5 8 12 13.5 11.75 36 34l9.5 9.5q4.5 4.5 4.5 9.75t-4.5 9.75l-9.5 9.5q-22.25 22.25-36 34-8 7-8 12 0 6 6.5 10 3 1.75 21 10.25 15.75 7.5 23.75 7.5 7.5 0 16-10.75 14-17.5 24.75-28.25l3-3q4.5-4.5 9.5-4.5 5.25 0 9.75 4.5l9 9q10.75 11.25 22.25 26.5 5.75 7.75 12.5 7.75 9.5 0 36.75-14.5 14.25-7.5 14.25-14.75 0-4.75-8-11-3.75-2.75-17-16z" />
<glyph unicode="&#xd8;" d="M317.75 373.25l-87.75-76q-24.5 46.5-55.25 46.5-20.5 0-32.5-18.75-9.5-14.5-9.5-32.5 0-25 12.25-69l-103.25-89.25q-32.5 46.75-32.5 104 0 58.75 34 104.25 30.75 41.25 80.5 60 34.25 12.75 73.5 12.75 69.75 0 120.5-42zM247.25 252.75l101 86.75q35.75-51.25 35.75-106.5 0-59-39-105.5-33-39.5-86.25-56.75-32.75-10.5-65.5-10.5-51.25 0-95.25 24-13 7-26 17.5l90.25 77.75q6.25-12 11-19.25 17.75-26.75 42.25-26.75 17.75 0 30 13.5 12.25 13.75 12.25 37.5 0 30.75-10.5 68.25zM17.75 104.5l336.75 291.75q3 2.5 7.5 2.5 5.75 0 9.75-5l3.75-4.5q3.5-4.25 3.5-9.25t-4.75-9l-336.5-289.75q-4.75-4-7.5-4-5.5 0-9 4l-5.75 6.25q-3 3.25-3 7.25 0 5 5.25 9.75z" horiz-adv-x="394" />
<glyph unicode="&#xdf;" d="M34 158.25v94.5q0 65.75 30.5 101.25 21.25 24.5 54.5 36.75 31 11.5 65 11.5 37.25 0 58.25-16.5 23.5-18.5 23.5-47 0-11-4.5-20.75-1.25-2.25-8.75-13.75-1.5-2.25-1.5-5.5 0-9.5 18.25-36.25 32.25-47.75 42.5-72.5 10.25-24.5 10.25-51 0-39.75-27.5-59.75-23.75-17.5-55.5-17.5-30.75 0-48.5 20-12 13.25-12 24 0 4.5 10 8.5 19.25 8 19.25 27.5 0 11-4.5 21.25-6.25 14-16.25 30.75-20.25 32.75-24.25 41.5-6 12.75-6 24.5 0 17.25 9 31 5.75 8.5 29.25 28.25 9.75 8 9.75 16.5 0 6.25-4 10.5-6.25 6.25-17.5 6.25-22.25 0-34.25-23.25-8.5-16.25-10.75-34.5-2.5-20.5-2.5-45 0-28.75 3.75-94.75 1-15.25 4-24 2.5-7.25 9.5-14 8.75-8.25 9.5-9.25 3.5-4.25 3.5-11.25 0-14.25-19-23.5-22.25-11-72.5-11-71 0-71 30.25 0 7.5 5 13.25 1.25 1.5 14 10.75 12.25 12.25 11.5 42.25z" horiz-adv-x="329" />
<glyph unicode="&#xf7;" d="M128.75 340.25q16.25 0 27.75-12.5 9.5-10.5 9.5-25 0-16.75-11.5-27.5-11.25-10.75-26.75-10.75-15.25 0-26.5 11.5-11 11-11 26t9.5 25.5q11.5 12.75 29 12.75zM128.75 161.75q16.25 0 27.75-12.5 9.5-10.5 9.5-25 0-16.75-11.5-27.5-11.25-10.75-26.75-10.75-15.25 0-26.5 11.5-11 11-11 26t9.5 25.5q11.5 12.75 29 12.75zM84.5 242.75h126.5q19.5 0 23.5 0.5 5.25 0.75 6.75 0.75 4 0 6.75-3 2.75-2.75 2.75-6.75 0-6.5-6-24.5-7-20.75-12.75-25.75-3.75-3.25-8.5-3.25l-39.75 3.5h-112q-33.25 0-49.75-1.5-3.25-0.25-5.5-0.25-5.5 0-8.75 3.5-2.75 3.25-2.75 6.5 0 3.75 6.5 22.25 8.25 23.25 14.5 27.75 4.25 3.25 10 3.25 3 0 7.75-0.5 23.5-2.5 40.75-2.5z" />
<glyph unicode="&#x2c6;" d="M126.5 432.5q7.25 0 25.25-9.75 24.25-13 48.5-33.75 21.75-18.5 21.75-29.5 0-8.75-7-14.75-5.25-4.25-11-4.25-10.5 0-41.5 15-12.5 6-23.25 9.25-11.25 3.5-12.75 3.5-8.75 0-35.5-14.25-26.25-14-38.25-14-10.25 0-15.5 8-3.5 5.5-3.5 12 0 8.75 8.5 18.5 11.75 13.25 36.5 30.75 33.25 23.25 47.75 23.25z" />
<glyph unicode="&#x2c7;" d="M53.5 432.5q11.5 0 37.5-14 26.75-14.25 35.5-14.25 1.5 0 14.25 4 9.25 2.75 21.75 8.75 30.75 15 41.5 15 7 0 12.75-5.75 5.25-5.75 5.25-13.25 0-14.5-40-43.75t-56-29.25q-8.25 0-26.75 10.25-19.75 11.25-43.75 31.5-15.75 13.5-20 22.25-1.75 3.5-1.75 8.5 0 7.5 4.75 13.75 5.25 6.25 15 6.25z" />
<glyph unicode="&#x2c9;" d="M108.75 404h80q20.5 0 24.75 0.5 5.5 0.75 7 0.75 10 0 10-10t-13.75-34.75q-6-11-14.75-11l-41.75 3.25h-65q-33.75 0-52-1.25-3.5-0.25-5.75-0.25-6 0-9.25 3.25-3 3-3 6.5 0 3.25 7 18.25 10 21.5 15.25 24.75 4.5 2.75 10.25 2.75 3 0 8-0.5 25.5-2.25 43-2.25z" />
<glyph unicode="&#x2d8;" d="M41.25 434.75q5.25 0 8.75-3l14.25-12q11-9.5 31.75-16.5 12-4 28.25-4 30.25 0 57 12.75 11.5 5.25 15.75 9.5l11.75 11q2.25 2.25 6 2.25 4.5 0 9-3 4.5-2.75 4.5-7.25 0-11.5-15.25-34.75-13.5-20.75-33.75-33.25-24.5-15-53.25-15-50.75 0-85 51.75-13.25 19.75-13.25 30.25 0 5.25 4.75 8.5 4.25 2.75 8.75 2.75z" />
<glyph unicode="&#x2d9;" d="M139.25 417.75q27 0 41.25-10.25 11.25-8 11.25-20.75 0-19.25-23-30-25.75-11.75-58.25-11.75-16.75 0-29 6.5-17 9.25-17 25.5 0 19.5 19.75 29.75 20.5 11 55 11z" />
<glyph unicode="&#x2da;" d="M134.25 441.5q33.5 0 54.5-12 11.25-6.5 17-20 3.75-8.25 3.75-17.5 0-21.5-15-35.25-18.5-16.75-59-16.75-75.5 0-75.5 50 0 24 17.75 37 20.25 14.5 56.5 14.5zM133.75 418.5q-11.75 0-17.75-8.75-6-8.5-6-20.25t6-19q6.75-8.25 17.75-8.25 11.25 0 18.5 8 6.75 7.5 6.75 21 0 13-7 20.5-6.5 6.75-18.25 6.75z" />
<glyph unicode="&#x2db;" d="M95.75 47.25l13.75 12.25q16.75 14.5 26 14.5 6.25 0 11.75-5 6.5-5.75 6.5-13.75 0-5.75-10.75-13.5-15-10.75-15-24.25 0-9.25 7.75-15.25 5.75-4.5 14-4.5 7.25 0 11.5 2l12.25 5.5q3 1.25 5.75 1.25 8.75 0 8.75-13 0-13.25-8.75-20.25-12.5-10-47.5-10-32.5 0-48.5 12.5-15.25 12-15.25 27.75 0 19.5 27.75 43.75z" />
<glyph unicode="&#x2dc;" d="M82 368.5v-6.75q0-9.25-6.5-14-7.75-5.75-18-5.75-13.75 0-23 11.25-5.5 6.75-5.5 18.5 0 14.5 6.75 27.25 6.25 12 18.75 18.25 10.75 5 22.75 5 16 0 35.75-8.5 4.75-2 28.5-14 13.75-7 21.75-7 3 0 5 3 1.75 2.75 4 16.5 0.5 3.5 6 7 7.25 4.5 16.75 4.5 18.5 0 26.5-12 5.75-8.5 5.75-21.25 0-19.75-12.25-34-11.5-13.75-33.75-13.75-12 0-21.25 3-8.75 2.5-23.5 9.25-7.5 3.5-23.75 10.5-13 5.75-16.5 7.5-5.25 2.25-8.75 2.25-5.5 0-5.5-6.75z" />
<glyph unicode="&#x2dd;" d="M111 350.75q42.75 21 42.75 45 0 12.5-14 23.25 14.5 5.5 31.25 5.5 32.25 0 48.5-11.5 10.5-7.5 10.5-17.5 0-20.5-39.25-39.25-16-7.5-42.25-13-13.25-3-19.75-3-11 0-17.75 10.5zM88.5 424.5q31.75 0 48-11.5 10.25-7.25 10.25-17.5 0-20.5-39.25-39-16.25-7.75-42-13.5-13.5-2.75-20.25-2.75-11 0-16.75 8.75-2.75 4.5-2.75 10.25 0 7.5 6.75 13.5 1 0.75 8.25 6.75 10.5 8 11.75 9.5 2.5 3.25 2.5 7.75 0 4.75-3.5 10.25-1.25 1.75-1.25 4.25 0 3.75 5 7 10.75 6.25 33.25 6.25z" />
<glyph unicode="&#x3c0;" d="M48 67v168.25h-37.5v77.5h328v-77.5h-37.25v-168.25h-98.75v168.25h-55.75v-168.25h-98.75z" horiz-adv-x="350" />
<glyph unicode="&#x2018;" d="M92.75 415.25q9 0 16-5t7-11.25q0-3.5-5-8.5-16.75-17-22-26.5-7-12.75-7-23 0-7.75 8.5-14.25 15.5-12 21.5-22 7.75-13.25 7.75-29.25 0-25-16.5-41.5-15.75-15.75-38.75-15.75-26.5 0-43.5 20.75-15 18.5-15 43.5 0 60.5 58.25 118.5 14.25 14.25 28.75 14.25z" horiz-adv-x="126" />
<glyph unicode="&#x2019;" d="M61.75 415.25q25.5 0 42.75-20.75 15-18.5 15-43.5 0-42.75-29.25-85-16.75-24-35.25-38.75-11.25-9-22.25-9-9.25 0-16 5-7.25 5-7.25 11.25 0 3.5 5 8.5 16.5 16.5 22 26.5 7 13 7 23 0 7.75-8.5 14.25-15.5 12-21.5 22-7.75 13.25-7.75 29 0 25.5 16.5 41.75 15.75 15.75 39.5 15.75z" horiz-adv-x="126" />
<glyph unicode="&#x201a;" d="M64.75 181.5q16.5 0 31.75-10.5 16.75-11.5 25.25-35.25 6-17.25 6-36 0-23-9.75-52-14.5-42.5-34.25-60.75-11.25-10.25-24-10.25-11.25 0-18.75 7.25-6 5.75-6 12 0 4 9.5 19 7.75 12 12.75 27 2 6 2 10 0 9.5-8.5 12.5-16.75 6.25-23.75 12.25-21.25 18-21.25 46.25 0 22.5 14.75 38.5 18.25 20 44.25 20z" horiz-adv-x="134" />
<glyph unicode="&#x201c;" d="M117.25 241.5q9.25 16 9.25 34.25 0 24-16.75 43 14 45.75 52.5 82 15.25 14.5 28.75 14.5 9 0 15.75-5 7.25-5 7.25-11.25 0-3.5-5-8.5-16.5-16.75-21.75-26.5-7-13-7-23 0-7.75 8.5-14.25 15.5-11.75 21.5-22.25 7.75-13 7.75-29 0-25-16.5-41.5-15.75-15.75-38.75-15.75-27.75 0-45.5 23.25zM92.75 415.25q9 0 16-5t7-11.25q0-3.5-5-8.5-16.75-17-22-26.5-7-12.75-7-23 0-7.75 8.5-14.25 15.5-12 21.5-22 7.75-13.25 7.75-29.25 0-25-16.5-41.5-15.75-15.75-38.75-15.75-26.5 0-43.5 20.75-15 18.5-15 43.5 0 60.5 58.25 118.5 14.25 14.25 28.75 14.25z" horiz-adv-x="224" />
<glyph unicode="&#x201d;" d="M121.5 316.5q5 18.25 5 32.5 0 23.25-12 43.25 18 23 45 23 26.5 0 43.25-20.75 15.25-18.75 15.25-43.5 0-43-29.25-85-16.75-24.25-35.25-39-11.25-9-22.5-9-8.75 0-15.75 5-7.25 5-7.25 11.25 0 3.5 4.75 8.5 17.25 17.5 22 26.5 7 13 7 23 0 7.75-8.5 14.25-6.5 5.25-11.75 10zM61.75 415.25q25.75 0 42.75-20.75 15-18.5 15-43.75 0-42.5-29.25-84.75-16.75-24-35.25-38.75-11.25-9-22.25-9-9.25 0-16 5-7.25 5-7.25 11.25 0 3.5 5 8.5 16.5 16.5 22 26.5 7 13 7 23 0 7.75-8.5 14.25-15.5 12-21.5 22-7.75 13.25-7.75 29 0 25.5 16.5 41.75 15.75 15.75 39.5 15.75z" horiz-adv-x="224" />
<glyph unicode="&#x201e;" d="M121.5 75q5 18.5 5 32.75 0 23-12 43 18 23 45 23 26.5 0 43.25-20.75 15.25-18.5 15.25-43.5 0-42.75-29.25-84.75-16.75-24.25-35.25-39-11.25-9-22.5-9-9 0-15.75 5-7.25 5-7.25 11.25 0 3.5 4.75 8.5 17 17.25 22 26.5 7 13 7 22.75 0 7.75-8.5 14.5-6.5 5-11.75 9.75zM61.75 173.75q25.75 0 42.75-20.75 15-18.5 15-43.75 0-42.5-29.25-84.75-16.75-24-35.25-38.75-11.25-9-22.25-9-9.25 0-16 5-7.25 5-7.25 11.25 0 3.5 5 8.5 16.5 16.5 22 26.5 7 13 7 23 0 7.75-8.5 14.25-15.5 12-21.5 22.25-7.75 13-7.75 28.75 0 25.5 16.5 41.75 15.75 15.75 39.5 15.75z" horiz-adv-x="224" />
<glyph unicode="&#x2022;" d="M172.25 311.5q28.25 0 49-20.75 21-20.75 21-50.25t-20.75-50.25-50.25-20.75q-29 0-49.75 20.5-21.25 21-21.25 50.5 0 30 21 50.5 21.5 20.5 51 20.5z" horiz-adv-x="342" />
<glyph unicode="&#x2039;" d="M107.25 310.25q8.75 0 16.25-6.25 7.5-5.75 7.5-14.5 0-7.75-4.25-14.75-4.25-7.25-23.75-36.25-16.75-25-16.75-38 0-7.5 7.5-21.25 7.75-13.75 34-53.75 4.75-7.25 4.75-15 0-10-9.25-17.25-6-4.75-12-4.75-12.25 0-37.75 21-23.25 19.25-45 43.75-25 28.75-25 47.25 0 10.75 9.5 25.5 9.75 15.25 40.75 46.5 23.75 24.25 39.25 34 6.25 3.75 14.25 3.75z" horiz-adv-x="137" />
<glyph unicode="&#x203a;" d="M29.5 310.25q11.75 0 32.25-18 19.75-17.25 46.5-47.75 24.25-27.75 24.25-44 0-22.5-40.75-64-47.5-48-67-48-6 0-12 4.75-9.25 7-9.25 17.25 0 7.75 4.75 15l21.5 32.75q20 30.5 20 42.25 0 13-16.75 38-19 28.25-23.75 36.5-4.25 7-4.25 14.5 0 8.75 7.25 14.5 7.75 6.25 17.25 6.25z" horiz-adv-x="137" />
<glyph unicode="&#x20a3;" d="M189.25 356.75q-14.75 0-19.5-6.75-2.75-4.25-5-16.75-4.25-23-4.25-45.25 0-10.25 6.25-13.25 6.5-3 21.75-3 10.5 0 16.75 4 5 3 7.25 13.5 5.75 27.25 23.5 27.25 30.5 0 30.5-73.25 0-45.75-13.25-67.75-8-13.25-22.5-13.25-14.25 0-16.5 19.75-1.5 15.5-4.5 20.5-8.25 15.25-29 15.25-12.5 0-16.5-4.5-3.25-3.25-3.25-40.25 0-44.25 11.75-53.5 3.75-2.75 20-5.25 5.75-1 10-5.5 5.5-6.25 5.5-15 0-18.75-22.75-24-32.5-8-91-8-51.5 0-71.25 6-9.75 3-15.75 12-4 6-4 14 0 11 8 17.75 2 1.5 13.75 6.25 14 5.5 16.75 25.5 4.5 30.75 4.5 147 0 44.75-4.75 59.75-3 9.5-14.25 14.5-13 5.75-15.75 9-4.5 5.75-4.5 12.75 0 7.25 4.75 12.75 11.5 12.75 32.25 12.75 10 0 29.5-1.5 39.75-3.25 96.75-3.25 91.75 0 123 4.75 4.25 0.75 7 0.75 8.25 0 16.25-10 22-28 22-62.5 0-19.5-11.25-28.25-6.75-5.25-15-5.25-9.25 0-16.75 6.5-1.75 1.25-19.5 21.5-5.25 6-16.25 12.5-17 9.75-70.75 9.75zM467 314.5q13 0 16.25-5.25 2-3 4.25-22.5 1.25-11 7.5-11 5.25 0 9.75 7.25 19.75 31.5 52.25 31.5 22.75 0 37.25-15 6.75-6.75 11-17.75 5-11.75 5-22.5 0-15.75-9.5-31.75-16.5-28.25-49.5-28.25-15 0-27.25 8-5.5 3.75-16.75 14.75-5.25 5.25-10 5.25-6.5 0-8.75-8-2.25-7-2.25-35.5 0-43.25 4.25-54 2-4.5 4.5-6.5 2.25-2 12.25-5 22.5-6.5 22.5-23.75t-18.75-25.25q-17.5-7.5-78.25-7.5-60.25 0-77.75 13.25-10.25 7.75-10.25 18.5 0 13.25 15.25 23.5 9 6 11.5 11.5 6.25 13.75 6.25 92 0 10.75-2.75 16.75-2 4.5-9.75 7.5-17.75 6.75-17.75 20.25 0 13.75 17.25 23.75 24 14 71.25 22.25 20 3.5 31 3.5z" horiz-adv-x="614" />
<glyph unicode="&#x20ac;" d="M3.5 252.5l12.25 30h42.25q11.25 40.25 37.25 71t61.75 47q35 16 74.5 16 71 0 126.5-53.25l-12.75-30.5q-46.25 53.75-114.25 53.75-64.25 0-109-47.75-22.75-24.25-32.75-56.25h234.75l-12.25-30h-228.75q-0.5-9.25-0.5-14.5t0.5-15h216.5l-12.5-30h-197.75q7-23.5 23.75-45.75 19.25-25.25 47.25-40.25 33-18 70.5-18 68.75 0 114.5 53.75v-42.5q-53.25-41.5-113.75-41.5-55.75 0-101.5 31.5-53.75 37-72 102.75h-54l12.25 30h36.5q-0.5 10-0.5 15.25 0 6 0.5 14.25h-49.25z" horiz-adv-x="362" />
<glyph unicode="&#x2122;" d="M190.5 409.25q-11-8-11-18.25 0-13.25 14.5-19.5 4.75-2.25 5.75-4 3.5-6 3.75-31-6-2.25-10.5-2.25-14.75 0-25.25 19-5.75 10.5-8.75 13-2.75 2-6 2-10.25 0-10.25-20v-83.75q0-13 3-19.5 2-5 9.75-8.25 8.25-3.5 10.5-6.25 3.5-4 3.5-9.25 0-21-59.25-21-70.5 0-70.5 22.75 0 3.5 2 6.25 2.5 3.25 14 6.75 6 2 8.25 7.25 3 7.25 4.75 41 1.75 36 1.75 56.5 0 19-3.25 24.5-1.75 3.25-5.75 3.25-5.75 0-11.5-8.5-10.25-15.25-16.5-20.25-7.75-5.75-15-5.75-8.25 0-13.75 6.75-4.75 5.75-4.75 14.75 0 20.5 15.5 41.25 11.25 15.25 22.5 15.25 3 0 7-0.75 9.25-2 25-3h79.25q12.75 0.5 23.25 3.25 4.5 1.25 8.25 1.25 4.25 0 9.75-3.5zM335.75 265.5l-18-40.25q-7.75-17.25-13.5-17.25-4 0-6.75 3.75-5.75 8-16.75 32.5l-19.75 44.5q-4 9.25-8.75 9.25-3.75 0-5-5.25-1.25-6.5-1.25-36 0-15.25 1.5-20.5 1.25-4.75 12.25-10.25 5-2.75 5-9 0-16.75-43.25-16.75-36.25 0-36.25 16.5 0 4.75 4 7.75 1 0.75 7.5 3.75 5.5 2.75 7.25 7.5 2.5 7 4 36 2.25 36.75 2.25 64 0 24.5-3.75 33.5-2 4.5-9.75 8.25-10.5 5-10.5 13.5 0 8.25 9.75 13.5 5.25 2.75 17.75 4.75 14 2 23.5 2 18.75 0 27-3 6-2.5 12.5-14.5l31.25-57.5q5.25-9.75 7-11.5 2.5-2 5.25-2 5.5 0 11 10.5l21 41.25q5 9.75 5.25 10.25 7.25 15 14.5 20 9.25 6.5 32.75 6.5 43 0 43-19.25 0-7.25-8.25-13.5-7-5.25-8.75-15.25-3.5-21-3.5-49 0-40 3.75-68.5 1-7.75 4.5-11.5 0.75-1 7.75-5.75 5.5-3.5 5.5-9.5 0-10.5-14-15-12.25-3.75-40.25-3.75-51 0-51 17.25 0 5.5 11 14.5 5.25 4.25 6 16.5 0.75 15 0.75 26.25 0 12-1 15.25-1 4.5-4.75 4.5t-6.75-4q-4.5-5.75-13-25z" horiz-adv-x="453" />
<glyph unicode="&#x2212;" d="M84.5 242.75h126.5q19.5 0 23.5 0.5 5.25 0.75 6.75 0.75 4 0 6.75-3 2.75-2.75 2.75-6.75 0-6.5-6-24.5-7-20.75-12.75-25.75-3.75-3.25-8.5-3.25l-39.75 3.5h-112q-33.25 0-49.75-1.5-3.25-0.25-5.5-0.25-5.5 0-8.75 3.5-2.75 3.25-2.75 6.5 0 3.75 6.5 22.25 8.25 23.25 14.5 27.75 4.25 3.25 10 3.25 3 0 7.75-0.5 23.5-2.5 40.75-2.5z" />
<glyph unicode="&#x2219;" d="M71.5 258q28 0 47.5-21.5 16.5-17.75 16.5-42.5 0-29-19.5-47.5-7.5-7.25-18.5-12-14-6.25-26.75-6.25-17.5 0-34.75 10.25-16.25 9.5-24.25 27-6 13.5-6 28.5 0 25.25 16.5 42.5 20 21.5 49.25 21.5z" horiz-adv-x="141" />
<glyph unicode="&#x221a;" d="M341.25 490.25v-87.25h-74.75l-72.25-336h-125.75l-19.25 113.25h-49.25v87.25h108.75l7.5-39.25q0.75-4 3-26 2.5-23.75 2.5-39.25 0-3.25-0.25-10.25h6.25q-0.5 45 17.75 143.75l43.5 193.75h152.25z" horiz-adv-x="342" />
<glyph unicode="&#x221e;" d="M172.5 194.25q-12.5-12-20.5-18-27.25-20-59.25-20-38.75 0-63.75 27-20.75 22.5-20.75 57.25 0 42 29.75 65.75 23.25 18.75 54 18.75 36 0 62.25-24.25 12.5-11.5 14.75-13.25 9 8.25 9.5 9 31.25 28.5 69.25 28.5 42.75 0 67.75-30.5 17.5-21.5 17.5-53.5 0-40-27-63.75-24-21-57-21-38 0-67.75 29.25-6.5 6.75-8.75 8.75zM206 240.75q15.25-20 30.5-20 12.25 0 19 9.25 3.5 5 3.5 10.5t-3.25 10.25q-6.5 9.75-19.25 9.75-12.25 0-22.75-10.75-8.5-8.5-7.75-9zM135.25 240.5q-15.75 19.75-30.5 19.75-12.25 0-19-9-3.5-5-3.5-10.75 0-5.25 3.25-10 6.5-9.75 19.25-9.75 12 0 22.75 10.75 8.25 8.5 7.75 9z" horiz-adv-x="342" />
<glyph unicode="&#x2260;" d="M118.25 207.5l2.5 5.5q2.75 6 2.75 8.75 0 6.75-11.5 6.75h-14.5q-33.25 0-49.75-1.5-3.25-0.25-5.5-0.25-5.5 0-8.75 3.5-2.75 3.25-2.75 6.5 0 3.75 6.5 22.25 8.25 23.25 14.5 27.75 4.25 3.25 10 3.25 3 0 7.75-0.5 24-2.5 40.75-2.5h30.25q10.5-0.5 17 7 3 3.75 13.5 32.5 3.25 9 6 11.75 5.25 5.5 18 5.5 21.75 0 37-3.5 8.5-2 8.5-10 0-4.25-8.5-18.75-8.25-14-8.25-17.5 0-7.25 14-7.25 16.25 0 22.5 0.75 5.25 0.75 6.75 0.75 4 0 6.75-3 2.75-2.75 2.75-6.75 0-6.5-6-24.5-7-20.75-12.75-25.75-3.75-3.25-8.5-3.25-2.25 0-17 2.25-11 1.75-27.75 1.75-10.25 0-14.5-6.5-2.25-3-5-9.5-2.5-6.25-2.5-8.5 0-6.25 11-6.25h43.25q19.5 0 23.75 0.5 5 0.75 6.5 0.75 4 0 6.75-3 2.75-2.75 2.75-6.75 0-6.75-6-24.5-7-20.75-12.75-25.75-3.75-3.25-8.5-3.25l-39.75 3.5h-44.75q-10 0.25-16.75-7.25-2.25-2.75-9.75-23.5-4.75-16.25-6.75-18.75-4.25-5.75-16-5.75-21.75 0-37.5 4.5-10.75 2.75-10.75 10.25 0 3.5 4.25 10 10.5 16 10.5 24.25 0 6.25-10 6.25-10.25 0-24.25-1.5-3.25-0.25-5.5-0.25-5.5 0-8.75 3.5-2.75 3.25-2.75 6.5 0 3.5 6.5 22.25 8.25 23.25 14.5 27.75 4.5 3.25 10 3.25 3 0 7.75-0.5 14.25-1.5 24.25-2 4-0.25 5.5-0.25 3.75-0.25 5-0.25 9.5 0 14 9.25z" horiz-adv-x="308" />
<glyph unicode="&#x2264;" d="M238.75 421.25v-104.25l-100-20.5 99.5-20 0.5-104.25-221.75 78.25v93zM238.75 159.75v-98h-221.75v98h221.75z" />
<glyph unicode="&#x2265;" d="M17 172.25l0.5 104.25 99.5 20-100 20.5v104.25l221.75-77.75v-93zM17 61.75v98h221.75v-98h-221.75z" />
<glyph unicode="&#xe600;" d="M9 67v341.25h70.75v-341.25h-70.75zM70.75 76v323.25h-52.75v-323.25h52.75z" horiz-adv-x="89" />
<glyph unicode="&#xe601;" d="M130.75 46.5q18.5 0 31.5-12 13.75-13 13.75-33 0-24-21-48.25-14.75-17.25-30.5-17.25-7 0-11.5 4-3.75 3.75-3.75 7.5 0 2.75 4.25 7 13 12.75 13 20.5 0 4.75-5.5 6.5-29 9-29 32.5 0 12.5 9.5 21.5 11.75 11 29.25 11z" />
<glyph unicode="&#xe602;" d="M53.5 527q11 0 53.5-22.5 9.25-4.75 19-4.75 11.75 0 36.5 11.75 31.5 15 41.5 15 7 0 12.75-5.75 5.25-5.75 5.25-13.25 0-14.75-40-44-39.75-29-56-29-8.25 0-26.75 10.25-20 11.25-43.75 31.5-21.75 18.5-21.75 30.75 0 7.5 4.75 13.75 5.25 6.25 15 6.25z" />
<glyph unicode="&#xe603;" d="M146 519q22 0 36.5-6.75 15.5-7.25 15.5-23.75 0-19.25-22.5-29.5-32.75-15.25-70.5-15.25-20.75 0-34.75 8.5-12.5 7.75-12.5 21 0 11.5 10 21.75 10 10 35.25 17.5 22.75 6.5 43 6.5z" />
<glyph unicode="&#xe604;" d="M41.25 527.5q5.25 0 8.75-3l14.25-12q23.25-19.5 60.25-19.5 29.5 0 56.75 11.75 10.75 4.75 15.75 9.5l11.75 11.25q2.25 2 6 2 4.5 0 9-3 4.5-2.75 4.5-7.25 0-11.5-15.25-34.75-13.5-20.5-33.75-33-24.5-15-53.25-15-51 0-85 51.5-13.25 20-13.25 30.25 0 5.25 4.75 8.5 4.25 2.75 8.75 2.75z" />
<glyph unicode="&#xe605;" d="M127.5 357.5q16 15 16 34.5 0 10.75-6.75 22.25 17.5 11 42 11 22.5 0 33.5-11.25 9-9.25 9-23 0-20.75-18.5-32.75-20.5-13-46.5-13-16.75 0-28.75 12.25zM94.5 426q22 0 33-11.25 9-9.25 9-23 0-20.75-18.5-32.75-20.25-13-46.5-13-13.5 0-23.25 7.25-13.5 10.25-13.5 28 0 20.75 15.75 32.75t44 12z" />
<glyph unicode="&#xe606;" d="M75.25 523q12.75 0 44.75-14 21-9 25.75-10.75 9.75-3.25 10.5-3.75 5.75-2.5 8.5-2.5 2.5 0 4.75 2.25 1.75 1.75 1.75 2.75l-0.5 11.5q0 2.25 4 6.75t12.75 7q4.5 1.25 7.25 1.25 13.25 0 21.5-7.25 12-10.25 12-29.5 0-16.75-12.75-32-14-17.25-32-17.25-10 0-31 6.75-19.25 6-40 16.75-17.5 9-24 9-3.5 0-6.25-2.5-2.5-2.5-2.5-3l1.25-13.25q0-0.75-4-4.75-3.5-3.5-12.25-5.75-4.75-1.25-6.75-1.25-4.25 0-11.75 3.75-18.5 8.75-18.5 36 0 16.75 9.75 28.25 13 15.5 37.75 15.5z" />
<glyph unicode="&#xe607;" d="M126.5 527q7.25 0 25.25-9.5 24.25-13.25 48.5-34 21.75-18.5 21.75-29.5 0-8.75-7-14.75-5.25-4.25-11-4.25-10 0-41.5 15-24.75 11.75-36.5 11.75-6.5 0-14.75-3-2-0.75-20.25-10.25-26.5-14-38.25-14-10.25 0-15.5 8-3.5 5.5-3.5 12 0 8.75 8.5 18.5 11.75 13.25 36.5 30.75 33.25 23.25 47.75 23.25z" />
<glyph unicode="&#xe608;" d="M85.5 520q24.75 0 35.5-7.5 4.75-3.25 4.75-7.25 0-2-2.75-6.75-1.25-2.25-1.25-4.5 0-3.25 4-7.75 1-1 12.25-9.25 8.5-6.5 9.25-7 8.5-6.75 8.5-16 0-18.5-26.75-18.5-44.5 0-82.5 29.25-21.25 16.25-21.25 28.5 0 9 12.75 16.75 16.25 10 47.5 10z" />
<glyph unicode="&#xe609;" d="M158.25 520q33.5 0 49.5-12.25 9.5-7.25 9.5-15 0-11.75-21.25-28-38-29.25-83-29.25-26.25 0-26.25 18.5 0 9.5 12.75 19.25l4.75 3.75q11.75 8.5 13.25 10.25 3.25 3.75 3.25 6.75 0 2-3 7.5-1 1.75-1 3.75 0 4.75 6 8 11.75 6.75 35.5 6.75z" />
<glyph unicode="&#xe60a;" d="M71 523.25q18 0 29-7.5 12.5-8.25 12.5-26 0-20.75-18-32.25-25.75-16.75-56.5-16.75-16.75 0-27.75 9.5-10 8.5-10 23.25 0 19.5 15.75 31.5 10.75 8 25.75 13 16.25 5.25 29.25 5.25zM214.25 526.75q18 0 29-7.5 12.5-8.25 12.5-26 0-21-18-32.5-25.75-16.5-56.75-16.5-16.5 0-27.5 9.5-10 8.5-10 23.25 0 19.5 15.75 31.5 10.75 8 25.75 13 16.25 5.25 29.25 5.25z" />
</font>
</defs>
</svg>
